
<svg version="1.1" id="图层_1" xmlns="http://www.w3.org/2000/svg" x="0" y="0" viewBox="0 0 850.4 255.1" style="enable-background:new 0 0 850.4 255.1" xml:space="preserve">
  <style>
    .st1{fill:#fff}
  </style>
  <path d="M790.4 0H53.1c-1.9 0-3.8 0-5.8.1-4.2.1-8.4.4-12.6 1.1-4.2.7-8.1 2-12 3.9-3.8 1.9-7.2 4.4-10.2 7.4-3 3-5.5 6.4-7.4 10.2-2 3.8-3.2 7.8-3.9 12-.8 4.2-1 8.4-1.1 12.6-.1 2-.1 3.9-.1 5.9V202c0 2 0 3.8.1 5.8.1 4.2.4 8.4 1.1 12.6.7 4.2 2 8.2 3.9 12 1.9 3.8 4.4 7.2 7.4 10.2 3 3 6.4 5.5 10.2 7.4 3.8 2 7.8 3.2 12 4 4.2.8 8.4 1 12.6 1.1 1.9 0 3.9.1 5.8.1H797.2c1.9 0 3.9 0 5.8-.1 4.2-.1 8.4-.4 12.6-1.1 4.2-.8 8.1-2 12-4 3.8-1.9 7.2-4.4 10.2-7.4 3-3 5.5-6.4 7.4-10.2 1.9-3.8 3.2-7.8 3.9-12 .8-4.2 1-8.4 1.2-12.6V47.3c-.1-4.2-.4-8.4-1.2-12.6-.7-4.2-2-8.2-3.9-12-1.9-3.8-4.4-7.2-7.4-10.2-3-3-6.4-5.5-10.2-7.4-3.9-1.9-7.8-3.2-12-3.9-4.1-.8-8.4-1-12.6-1.1-1.9 0-3.9-.1-5.8-.1h-6.8z" style="fill:#c0c1c1"/>
  <path d="M53.2 249.6c-1.9 0-3.8 0-5.7-.1-3.5-.1-7.7-.3-11.8-1-3.8-.7-7.3-1.8-10.4-3.4-3.3-1.7-6.2-3.8-8.8-6.4-2.6-2.6-4.7-5.5-6.4-8.8-1.6-3.2-2.7-6.6-3.4-10.4-.8-4.2-1-8.5-1-11.8 0-1.3-.1-5.7-.1-5.7V53.2s.1-4.4.1-5.6c.1-3.3.3-7.6 1-11.8.7-3.9 1.8-7.3 3.4-10.5 1.7-3.3 3.8-6.3 6.4-8.8 2.6-2.6 5.6-4.8 8.8-6.4 3.2-1.6 6.6-2.8 10.4-3.4 4.2-.8 8.5-.9 11.8-1l5.7-.1h744l5.7.1c3.2.1 7.5.3 11.7 1 3.8.7 7.2 1.8 10.5 3.4 3.2 1.7 6.2 3.8 8.8 6.4 2.6 2.6 4.7 5.5 6.4 8.8 1.6 3.2 2.7 6.6 3.4 10.4.7 4 1 8.1 1.1 11.9V207.8c-.1 3.7-.4 7.8-1.1 11.7-.7 3.9-1.8 7.3-3.4 10.5-1.7 3.3-3.9 6.2-6.4 8.7-2.6 2.6-5.6 4.8-8.8 6.4-3.3 1.7-6.6 2.8-10.5 3.5-4 .7-8.2.9-11.8 1-1.8 0-3.8.1-5.6.1h-6.8l-737.2-.1z"/>
  <path class="st1" d="M315.4 172.4h-29.5l-7.2 19.7h-13l28.9-73.7h12.3l29.6 73.7h-13.6l-7.5-19.7zm-25.8-10h22l-7.9-21.1c-1.1-2.9-2.2-6.1-3.2-9.7-1 3.1-2 6.3-3.1 9.6l-7.8 21.2zM342.3 150.7c0-4.1-.1-8.5-.4-13.4h11.8c.4 2.3.7 4.6.9 7 4.9-5.3 10.5-8 16.8-8 3.7 0 7.1.9 10.2 2.8 3.1 1.8 5.6 4.8 7.6 8.8 1.9 4 2.9 9.1 2.9 15.2 0 6.4-1.1 11.9-3.3 16.4-2.2 4.5-5.2 8-9.2 10.3-3.9 2.3-8.5 3.5-13.6 3.5-3.7 0-7.4-.6-11-1.9V214l-12.6 1.1v-64.4zm33 28.1c2.6-3.4 3.8-8.5 3.8-15.1 0-6.1-1.1-10.6-3.2-13.4-2.1-2.8-4.9-4.1-8.5-4.1-2.4 0-4.7.6-6.8 1.7-2.1 1.2-4 2.7-5.9 4.6v29.4c1.3.6 2.7 1.1 4.4 1.5 1.7.4 3.3.5 4.9.5 5 0 8.7-1.7 11.3-5.1zM400 150.7c0-4.1-.1-8.5-.4-13.4h11.8c.4 2.3.7 4.6.9 7 4.9-5.3 10.5-8 16.8-8 3.7 0 7.1.9 10.2 2.8 3.1 1.8 5.6 4.8 7.6 8.8 1.9 4 2.9 9.1 2.9 15.2 0 6.4-1.1 11.9-3.3 16.4-2.2 4.5-5.2 8-9.2 10.3-3.9 2.3-8.5 3.5-13.6 3.5-3.7 0-7.4-.6-11-1.9V214l-12.6 1.1v-64.4zm33.1 28.1c2.6-3.4 3.8-8.5 3.8-15.1 0-6.1-1.1-10.6-3.2-13.4-2.1-2.8-4.9-4.1-8.5-4.1-2.4 0-4.7.6-6.8 1.7-2.1 1.2-4 2.7-5.9 4.6v29.4c1.3.6 2.7 1.1 4.4 1.5s3.3.5 4.9.5c5 0 8.7-1.7 11.3-5.1zM473.4 188.7c-5.4-3-9.6-7.3-12.5-12.9-2.9-5.6-4.4-12.2-4.4-19.8 0-8.3 1.7-15.3 5-21.1 3.4-5.8 7.9-10.1 13.7-13 5.8-2.9 12.3-4.4 19.5-4.4 4.2 0 8.3.5 12.1 1.4 3.9.9 7.4 2.2 10.8 3.8l-3.2 9.7c-6.7-3.2-13.1-4.8-19.1-4.8-5.1 0-9.6 1.1-13.5 3.3-3.9 2.2-6.8 5.4-9 9.6-2.1 4.2-3.2 9.4-3.2 15.4 0 5.3.8 9.9 2.5 14 1.6 4.1 4.2 7.3 7.8 9.7 3.5 2.4 8 3.6 13.4 3.6 2.4 0 4.9-.2 7.3-.6 2.4-.4 4.7-1 6.9-1.8v-14.9h-17V156h29.3v31c-4.2 2-8.6 3.5-13.3 4.5-4.6 1.1-9.2 1.6-13.8 1.6-7.4.1-13.8-1.4-19.3-4.4zM565 192.2c-.4-2.1-.7-4.6-.9-7.3-1.9 2.3-4.5 4.3-7.6 5.9-3.1 1.6-6.6 2.4-10.5 2.4-3.2 0-6-.6-8.6-1.9-2.6-1.2-4.7-3.1-6.2-5.6-1.5-2.5-2.3-5.5-2.3-9.1 0-5.3 1.9-9.6 5.8-12.7 3.8-3.2 10.2-4.8 19.2-4.8 3.4 0 6.7.2 10 .7v-1.1c0-4.9-1-8.3-3.1-10.3s-5-3-8.9-3c-2.7 0-5.5.4-8.6 1.2-3.1.8-5.7 1.7-8 2.8l-2-9.2c2.2-1 5.2-2 8.9-2.8 3.7-.8 7.5-1.3 11.6-1.3 4.7 0 8.8.7 12.1 2.2 3.3 1.4 5.9 3.9 7.8 7.4 1.9 3.5 2.8 8.2 2.8 14.2v21.8c0 2.3.1 5.7.4 10.3H565zm-7.5-10.2c2.6-1.3 4.8-2.8 6.4-4.7v-10.2c-3.4-.4-6.2-.6-8.4-.6-5.2 0-8.8.8-10.8 2.5s-3 3.9-3 6.8c0 2.7.7 4.7 2.2 6 1.4 1.3 3.4 2 5.9 2 2.5.1 5.1-.6 7.7-1.8zM587.4 179v-64.9l12.5-1v63.7c0 2.3.4 4 1.2 5 .8 1 2.1 1.5 3.8 1.5.8 0 1.9-.2 3.3-.6l1.5 9c-1.2.5-2.6.9-4.4 1.1-1.7.3-3.3.4-4.9.4-8.6 0-13-4.7-13-14.2zM618.7 179v-64.9l12.5-1v63.7c0 2.3.4 4 1.2 5 .8 1 2.1 1.5 3.8 1.5.8 0 1.9-.2 3.3-.6l1.5 9c-1.2.5-2.6.9-4.4 1.1-1.7.3-3.3.4-4.9.4-8.6 0-13-4.7-13-14.2zM693.1 166.3h-35.9c.6 11.5 6.1 17.2 16.4 17.2 2.6 0 5.2-.3 7.9-.9 2.7-.6 5.3-1.5 7.8-2.5l2.7 8.6c-6.1 3-13 4.5-20.7 4.5-5.8 0-10.8-1.1-14.8-3.3-4-2.2-7-5.4-9-9.5s-3-9.1-3-15c0-6.1 1.1-11.3 3.2-15.7 2.1-4.4 5.1-7.7 8.9-10 3.8-2.3 8.2-3.5 13.2-3.5 5.2 0 9.5 1.2 13 3.6 3.5 2.4 6.1 5.7 7.7 9.7 1.7 4 2.5 8.5 2.5 13.4v3.4zm-12.3-8c-.2-4.4-1.3-7.7-3.3-9.8-2-2.2-4.6-3.3-7.9-3.3-3.2 0-5.8 1.1-8 3.3-2.1 2.2-3.5 5.5-4.1 9.8h23.3zM703.2 151.1c0-3-.1-7.6-.4-13.8h11.8c.2 1.5.4 3.4.6 5.5.2 2.1.3 3.8.4 5.2 1.5-2.4 2.9-4.4 4.3-6.1s3.1-3 4.9-4c1.9-1 4-1.6 6.4-1.6 1.9 0 3.6.2 5 .6l-1.6 10.9c-1.2-.4-2.6-.6-4.1-.6-3 0-5.5.8-7.7 2.3-2.2 1.5-4.6 4-7.1 7.5v35.3h-12.5v-41.2zM743.7 214.6c-1.8-.3-3.3-.7-4.5-1.1l2.3-9.2c.8.2 1.9.5 3.2.7 1.3.2 2.5.3 3.7.3 5.6 0 9.7-3.6 12.5-10.7l.8-2-20.2-55.4H755l10.2 30.9c1.7 5.3 2.7 9.3 3.2 12.2 1-4 2.1-7.9 3.4-11.9l10.3-31.2h12.7l-20.2 55.6c-1.9 5.3-4 9.5-6.2 12.7-2.2 3.2-4.8 5.6-7.8 7.2-3 1.6-6.6 2.3-10.9 2.3-2.2.1-4.1 0-6-.4zM265.6 46.7h22.7l-.6 5.5h-15.4v10.6h14.5v5.1h-14.5v11.7h16.2l-.6 5.5h-22.3V46.7zM303.9 65.6l-12-18.8h7.5l8.1 13.8 8.5-13.8h7.3l-11.9 18.6 12.8 19.9h-7.7l-9.2-15.1-9.3 15.1h-7l12.9-19.7zM329.3 46.7h10.4c4.9 0 8.6 1 11.2 3 2.6 2 3.9 4.9 3.9 8.6 0 2.6-.6 4.8-1.7 6.7-1.2 1.9-2.8 3.4-4.9 4.4s-4.5 1.5-7.1 1.5c-1.5 0-3.2-.2-5-.5v14.8h-6.6V46.7zM346 63.9c1.4-1.3 2.1-3.1 2.1-5.4 0-2.4-.7-4.1-2.2-5.1-1.4-1-3.6-1.6-6.4-1.6H336v13.7c1.7.3 2.9.4 3.8.4 2.7-.1 4.8-.7 6.2-2zM361.3 46.7h6.6v32.8h15.9l-.6 5.7h-22V46.7zM394 83.3c-2.8-1.6-5-3.9-6.5-6.8s-2.2-6.3-2.2-10.2c0-4.1.8-7.6 2.4-10.6 1.6-3 3.9-5.4 6.9-7 3-1.7 6.5-2.5 10.6-2.5 3.9 0 7.2.8 10 2.4 2.8 1.6 4.9 3.9 6.4 6.8s2.2 6.3 2.2 10.1c0 4.1-.8 7.7-2.4 10.8-1.6 3-3.9 5.4-6.9 7-3 1.6-6.5 2.5-10.5 2.5-3.9-.1-7.2-.9-10-2.5zm17.2-4.7c1.9-1.2 3.3-3 4.2-5.2.9-2.2 1.4-4.7 1.4-7.5s-.4-5.2-1.2-7.4c-.8-2.2-2.1-3.9-3.9-5.2-1.8-1.3-4.1-1.9-6.9-1.9-2.7 0-5 .7-6.9 2-1.9 1.3-3.3 3-4.2 5.2-.9 2.2-1.4 4.6-1.4 7.2 0 2.8.4 5.3 1.3 7.5s2.2 3.9 4.1 5.2c1.8 1.3 4.1 1.9 6.8 1.9 2.6.1 4.8-.6 6.7-1.8zM431.1 46.7h12c4.4 0 7.7.9 10 2.6 2.3 1.8 3.4 4.3 3.4 7.5 0 2-.4 3.8-1.2 5.4-.8 1.6-1.8 2.8-3 3.8s-2.4 1.7-3.7 2.2l11.8 17h-7.7l-10-15.3h-4.9v15.3h-6.6V46.7zm10.4 18.2c1.6 0 3-.3 4.3-.9 1.2-.6 2.2-1.5 2.9-2.7.7-1.1 1-2.5 1-4 0-1.9-.6-3.3-1.8-4.2-1.2-.9-3-1.3-5.3-1.3h-4.8V65h3.7zM465.6 46.7h22.7l-.6 5.5h-15.4v10.6h14.5v5.1h-14.5v11.7h16.2l-.6 5.5h-22.3V46.7zM513 46.7h6.6v38.5H513V46.7zM537.2 52.3h-11.9l.6-5.6h29.9l-.6 5.6h-11.3v32.9h-6.6V52.3zM584.6 83.3c-2.8-1.6-5-3.9-6.5-6.8s-2.2-6.3-2.2-10.2c0-4.1.8-7.6 2.4-10.6 1.6-3 3.9-5.4 6.9-7 3-1.7 6.5-2.5 10.6-2.5 3.9 0 7.2.8 10 2.4 2.8 1.6 4.9 3.9 6.4 6.8s2.2 6.3 2.2 10.1c0 4.1-.8 7.7-2.4 10.8-1.6 3-3.9 5.4-6.9 7-3 1.6-6.5 2.5-10.5 2.5-3.8-.1-7.2-.9-10-2.5zm17.2-4.7c1.9-1.2 3.3-3 4.2-5.2.9-2.2 1.4-4.7 1.4-7.5s-.4-5.2-1.2-7.4c-.8-2.2-2.1-3.9-3.9-5.2-1.8-1.3-4.1-1.9-6.9-1.9-2.7 0-5 .7-6.9 2-1.9 1.3-3.3 3-4.2 5.2-.9 2.2-1.4 4.6-1.4 7.2 0 2.8.4 5.3 1.3 7.5s2.2 3.9 4.1 5.2c1.8 1.3 4.1 1.9 6.8 1.9 2.6.1 4.9-.6 6.7-1.8zM621.7 46.7h7.6l19 29.8c-.2-2.8-.2-5.4-.2-7.8v-22h6.2v38.5h-7.4l-19.3-30.3c.2 3.4.3 6.5.3 9.1v21.2h-6.2V46.7z"/>
  <path d="M172.3 46.4h-71c-33.4 0-45.7 12.2-45.7 45.7v71c0 33.4 12.2 45.7 45.7 45.7h71c33.4 0 45.7-12.2 45.7-45.7v-71c0-33.5-12.2-45.7-45.7-45.7z" style="fill-rule:evenodd;clip-rule:evenodd;fill:#c8102e" id="形状_1_拷贝_25_32_"/>
  <path class="st1" d="M87.9 127.6h4.3v21.2h-4.3v-8.6h-9.7v8.6h-4.3v-21.2h4.3v8.6h9.7v-8.6zm24.2 12.1c0 3.4-1.7 5.3-4.8 5.3-3.1 0-4.9-1.9-4.9-5.4v-12h-4.3v12.1c0 6 3.3 9.4 9.1 9.4s9.2-3.5 9.2-9.6v-12h-4.3v12.2zm49.8 2.5-4.8-14.6h-3.5l-4.8 14.6-4.7-14.6h-4.6l7.4 21.2h3.6l4.8-13.9 4.8 13.9h3.6l7.4-21.2h-4.5l-4.7 14.6zm16.8-2.5h7.8v-3.9h-7.8v-4.3h11.4v-3.9h-15.6v21.2h16v-3.9h-11.8v-5.2zm17 9.1h4.2v-21.2h-4.2v21.2zm-70.8-4.4-1.9 4.4h-4.4l9.3-21.2h3.8l9.3 21.2h-4.5l-1.9-4.4h-9.7zm1.6-3.9h6.5l-3.3-7.6-3.2 7.6zM136.9 100.6c-14.9 0-27-12.1-27-27h3.8c0 12.8 10.4 23.2 23.2 23.2 12.8 0 23.2-10.4 23.2-23.2h3.8c0 14.8-12.1 27-27 27z"/>
</svg>