<svg aria-hidden="true" style="position: absolute; width: 0; height: 0; overflow: hidden;" version="1.1" xmlns="http://www.w3.org/2000/svg" xmlns:xlink="http://www.w3.org/1999/xlink">
<defs>
<symbol id="icon-tiktok" viewBox="0 0 28 32">
<path d="M28 13.119c-0.009 0-0.020 0-0.031 0-2.868 0-5.521-0.919-7.68-2.48l0.039 0.027v11.17c-0.002 5.609-4.55 10.156-10.159 10.156-5.611 0-10.159-4.549-10.159-10.159s4.548-10.159 10.159-10.159c0.492 0 0.976 0.035 1.449 0.103l-0.054-0.006v5.618c-0.418-0.136-0.9-0.215-1.399-0.215-2.576 0-4.664 2.088-4.664 4.664s2.088 4.664 4.664 4.664c2.576 0 4.664-2.088 4.664-4.664 0-0 0-0 0-0v0-21.836h5.5c-0 0.018-0 0.040-0 0.062 0 0.468 0.042 0.925 0.124 1.37l-0.007-0.046c0.406 2.115 1.638 3.886 3.34 4.996l0.029 0.018c1.178 0.789 2.627 1.259 4.186 1.259 0.001 0 0.001 0 0.002 0h-0z"></path>
</symbol>
<symbol id="icon-youtube" viewBox="0 0 36 32">
<path d="M34.353 7.755c-0.393-1.478-1.549-2.642-3.018-3.037-2.662-0.718-13.336-0.718-13.336-0.718s-10.674 0-13.336 0.718c-1.469 0.395-2.625 1.559-3.018 3.037-0.713 2.679-0.713 8.269-0.713 8.269s0 5.59 0.713 8.269c0.393 1.478 1.549 2.594 3.018 2.989 2.662 0.718 13.336 0.718 13.336 0.718s10.674 0 13.336-0.718c1.469-0.395 2.625-1.511 3.018-2.989 0.713-2.679 0.713-8.269 0.713-8.269s0-5.59-0.713-8.269zM14.509 21.099v-10.15l8.921 5.075-8.921 5.075z"></path>
</symbol>
<symbol id="icon-facebook" viewBox="0 0 20 32">
<path d="M17.446 18l0.889-5.791h-5.557v-3.758c0-1.584 0.776-3.129 3.265-3.129h2.526v-4.931s-2.293-0.391-4.484-0.391c-4.576 0-7.567 2.774-7.567 7.795v4.414h-5.087v5.791h5.087v14h6.261v-14z"></path>
</symbol>
<symbol id="icon-instagram" viewBox="0 0 28 32">
<path d="M14.006 8.813c-3.975 0-7.181 3.206-7.181 7.181s3.206 7.181 7.181 7.181 7.181-3.206 7.181-7.181-3.206-7.181-7.181-7.181zM14.006 20.663c-2.569 0-4.669-2.094-4.669-4.669s2.094-4.669 4.669-4.669 4.669 2.094 4.669 4.669-2.1 4.669-4.669 4.669zM23.156 8.519c0 0.931-0.75 1.675-1.675 1.675-0.931 0-1.675-0.75-1.675-1.675s0.75-1.675 1.675-1.675 1.675 0.75 1.675 1.675zM27.913 10.219c-0.106-2.244-0.619-4.231-2.262-5.869-1.637-1.638-3.625-2.15-5.869-2.263-2.313-0.131-9.244-0.131-11.556 0-2.237 0.106-4.225 0.619-5.869 2.256s-2.15 3.625-2.263 5.869c-0.131 2.313-0.131 9.244 0 11.556 0.106 2.244 0.619 4.231 2.263 5.869s3.625 2.15 5.869 2.262c2.313 0.131 9.244 0.131 11.556 0 2.244-0.106 4.231-0.619 5.869-2.262 1.637-1.637 2.15-3.625 2.262-5.869 0.131-2.313 0.131-9.238 0-11.55zM24.925 24.25c-0.488 1.225-1.431 2.169-2.663 2.663-1.844 0.731-6.219 0.563-8.256 0.563s-6.419 0.163-8.256-0.563c-1.225-0.488-2.169-1.431-2.663-2.663-0.731-1.844-0.563-6.219-0.563-8.256s-0.163-6.419 0.563-8.256c0.487-1.225 1.431-2.169 2.663-2.662 1.844-0.731 6.219-0.563 8.256-0.563s6.419-0.162 8.256 0.563c1.225 0.487 2.169 1.431 2.663 2.662 0.731 1.844 0.563 6.219 0.563 8.256s0.169 6.419-0.563 8.256z"></path>
</symbol>
</defs>
</svg>
