<svg aria-hidden="true" style="position: absolute; width: 0; height: 0; overflow: hidden;" version="1.1" xmlns="http://www.w3.org/2000/svg" xmlns:xlink="http://www.w3.org/1999/xlink">
<defs>
<symbol id="icon-huawei" viewBox="0 0 107 32">
<path fill="#c0c1c1" style="fill: var(--color1, #c0c1c1)" d="M99.149 0h-91.622c-0.288 0-0.577 0-0.866 0-0.238 0-0.477 0-0.728 0.013-0.527 0.013-1.054 0.050-1.581 0.138s-1.016 0.251-1.505 0.489c-0.477 0.238-0.903 0.552-1.28 0.928s-0.69 0.803-0.928 1.28c-0.251 0.477-0.401 0.978-0.489 1.505-0.1 0.527-0.125 1.054-0.138 1.581-0.013 0.251-0.013 0.489-0.013 0.74 0 0.288 0 0.577 0 0.866v16.935c0 0.288 0 0.577 0 0.866 0 0.251 0 0.477 0.013 0.728 0.013 0.527 0.050 1.054 0.138 1.581s0.251 1.029 0.489 1.505c0.238 0.477 0.552 0.903 0.928 1.279s0.803 0.69 1.28 0.928c0.477 0.251 0.978 0.401 1.505 0.502s1.054 0.125 1.581 0.138c0.238 0 0.489 0.013 0.728 0.013 0.288 0 0.577 0 0.866 0h91.622c0.288 0 0.577 0 0.853 0 0.238 0 0.489 0 0.728-0.013 0.527-0.013 1.054-0.050 1.581-0.138 0.527-0.1 1.016-0.251 1.505-0.502 0.477-0.238 0.903-0.552 1.279-0.928s0.69-0.803 0.928-1.279c0.238-0.477 0.401-0.978 0.489-1.505 0.1-0.527 0.125-1.054 0.151-1.581 0-0.251 0-0.477 0-0.728 0-0.288 0-0.577 0-0.866v-16.947c0-0.288 0-0.577 0-0.866 0-0.238 0-0.489 0-0.728-0.013-0.527-0.050-1.054-0.151-1.581-0.088-0.527-0.251-1.029-0.489-1.505s-0.552-0.903-0.928-1.28c-0.376-0.376-0.803-0.69-1.279-0.928-0.489-0.238-0.978-0.401-1.505-0.489-0.514-0.1-1.054-0.125-1.581-0.138-0.238 0-0.489-0.013-0.728-0.013-0.276 0-0.564 0-0.853 0v0z"></path>
<path fill="#000" style="fill: var(--color2, #000)" d="M6.673 31.31c-0.238 0-0.477 0-0.715-0.013-0.439-0.013-0.966-0.038-1.48-0.125-0.477-0.088-0.916-0.226-1.305-0.427-0.414-0.213-0.778-0.477-1.104-0.803s-0.59-0.69-0.803-1.104c-0.201-0.401-0.339-0.828-0.426-1.305-0.1-0.527-0.125-1.066-0.125-1.48 0-0.163-0.013-0.715-0.013-0.715v-18.666c0 0 0.013-0.552 0.013-0.702 0.013-0.414 0.038-0.953 0.125-1.48 0.088-0.489 0.226-0.916 0.426-1.317 0.213-0.414 0.477-0.79 0.803-1.104 0.326-0.326 0.702-0.602 1.104-0.803s0.828-0.351 1.305-0.426c0.527-0.1 1.066-0.113 1.48-0.125l0.715-0.013 94.043 0.013c0.401 0.013 0.941 0.038 1.468 0.125 0.477 0.088 0.903 0.226 1.317 0.426 0.401 0.213 0.778 0.477 1.104 0.803s0.59 0.69 0.803 1.104c0.201 0.401 0.339 0.828 0.427 1.305 0.088 0.502 0.125 1.016 0.138 1.493 0 0.226 0 0.464 0 0.702 0 0.301 0 0.577 0 0.866v16.935c0 0.288 0 0.564 0 0.853 0 0.251 0 0.489 0 0.74-0.013 0.464-0.050 0.978-0.138 1.468s-0.226 0.916-0.427 1.317c-0.213 0.414-0.489 0.778-0.803 1.091-0.326 0.326-0.702 0.602-1.104 0.803-0.414 0.213-0.828 0.351-1.317 0.439-0.502 0.088-1.029 0.113-1.48 0.125-0.226 0-0.477 0.013-0.702 0.013l-93.328-0.013z"></path>
<path fill="#fff" style="fill: var(--color3, #fff)" d="M39.564 21.626h-3.7l-0.903 2.471h-1.631l3.625-9.245h1.543l3.713 9.245h-1.706l-0.941-2.471zM36.328 20.372h2.76l-0.991-2.647c-0.138-0.364-0.276-0.765-0.401-1.217-0.125 0.389-0.251 0.79-0.389 1.204l-0.978 2.659z"></path>
<path fill="#fff" style="fill: var(--color3, #fff)" d="M42.938 18.904c0-0.514-0.013-1.066-0.050-1.681h1.48c0.050 0.288 0.088 0.577 0.113 0.878 0.615-0.665 1.317-1.004 2.107-1.004 0.464 0 0.891 0.113 1.279 0.351 0.389 0.226 0.702 0.602 0.953 1.104 0.238 0.502 0.364 1.142 0.364 1.907 0 0.803-0.138 1.493-0.414 2.057s-0.652 1.004-1.154 1.292c-0.489 0.288-1.066 0.439-1.706 0.439-0.464 0-0.928-0.075-1.38-0.238v2.835l-1.581 0.138v-8.078zM47.078 22.429c0.326-0.427 0.477-1.066 0.477-1.894 0-0.765-0.138-1.33-0.401-1.681s-0.615-0.514-1.066-0.514c-0.301 0-0.59 0.075-0.853 0.213-0.263 0.151-0.502 0.339-0.74 0.577v3.688c0.163 0.075 0.339 0.138 0.552 0.188s0.414 0.063 0.615 0.063c0.627 0 1.091-0.213 1.417-0.64z"></path>
<path fill="#fff" style="fill: var(--color3, #fff)" d="M50.176 18.904c0-0.514-0.013-1.066-0.050-1.681h1.48c0.050 0.288 0.088 0.577 0.113 0.878 0.615-0.665 1.317-1.004 2.107-1.004 0.464 0 0.891 0.113 1.279 0.351 0.389 0.226 0.702 0.602 0.953 1.104 0.238 0.502 0.364 1.142 0.364 1.907 0 0.803-0.138 1.493-0.414 2.057s-0.652 1.004-1.154 1.292c-0.489 0.288-1.066 0.439-1.706 0.439-0.464 0-0.928-0.075-1.38-0.238v2.835l-1.581 0.138v-8.078zM54.328 22.429c0.326-0.427 0.477-1.066 0.477-1.894 0-0.765-0.138-1.33-0.401-1.681s-0.615-0.514-1.066-0.514c-0.301 0-0.59 0.075-0.853 0.213-0.263 0.151-0.502 0.339-0.74 0.577v3.688c0.163 0.075 0.339 0.138 0.552 0.188s0.414 0.063 0.615 0.063c0.627 0 1.091-0.213 1.417-0.64z"></path>
<path fill="#fff" style="fill: var(--color3, #fff)" d="M59.384 23.671c-0.677-0.376-1.204-0.916-1.568-1.618s-0.552-1.53-0.552-2.484c0-1.041 0.213-1.919 0.627-2.647 0.426-0.728 0.991-1.267 1.719-1.631s1.543-0.552 2.446-0.552c0.527 0 1.041 0.063 1.518 0.176 0.489 0.113 0.928 0.276 1.355 0.477l-0.401 1.217c-0.84-0.401-1.643-0.602-2.396-0.602-0.64 0-1.204 0.138-1.693 0.414s-0.853 0.677-1.129 1.204c-0.263 0.527-0.401 1.179-0.401 1.932 0 0.665 0.1 1.242 0.314 1.756 0.201 0.514 0.527 0.916 0.978 1.217 0.439 0.301 1.004 0.452 1.681 0.452 0.301 0 0.615-0.025 0.916-0.075s0.59-0.125 0.866-0.226v-1.869h-2.133v-1.242h3.675v3.889c-0.527 0.251-1.079 0.439-1.668 0.564-0.577 0.138-1.154 0.201-1.731 0.201-0.928 0.013-1.731-0.176-2.421-0.552z"></path>
<path fill="#fff" style="fill: var(--color3, #fff)" d="M70.874 24.11c-0.050-0.263-0.088-0.577-0.113-0.916-0.238 0.288-0.564 0.539-0.953 0.74s-0.828 0.301-1.317 0.301c-0.401 0-0.753-0.075-1.079-0.238-0.326-0.151-0.59-0.389-0.778-0.702s-0.288-0.69-0.288-1.142c0-0.665 0.238-1.204 0.728-1.593 0.477-0.401 1.279-0.602 2.408-0.602 0.427 0 0.84 0.025 1.254 0.088v-0.138c0-0.615-0.125-1.041-0.389-1.292s-0.627-0.376-1.116-0.376c-0.339 0-0.69 0.050-1.079 0.151s-0.715 0.213-1.004 0.351l-0.251-1.154c0.276-0.125 0.652-0.251 1.116-0.351s0.941-0.163 1.455-0.163c0.59 0 1.104 0.088 1.518 0.276 0.414 0.176 0.74 0.489 0.978 0.928s0.351 1.029 0.351 1.781v2.735c0 0.288 0.013 0.715 0.050 1.292h-1.493zM69.933 22.83c0.326-0.163 0.602-0.351 0.803-0.59v-1.279c-0.427-0.050-0.778-0.075-1.054-0.075-0.652 0-1.104 0.1-1.355 0.314s-0.376 0.489-0.376 0.853c0 0.339 0.088 0.59 0.276 0.753 0.176 0.163 0.427 0.251 0.74 0.251 0.314 0.013 0.64-0.075 0.966-0.226z"></path>
<path fill="#fff" style="fill: var(--color3, #fff)" d="M73.684 22.454v-8.141l1.568-0.125v7.991c0 0.288 0.050 0.502 0.151 0.627s0.263 0.188 0.477 0.188c0.1 0 0.238-0.025 0.414-0.075l0.188 1.129c-0.151 0.063-0.326 0.113-0.552 0.138-0.213 0.038-0.414 0.050-0.615 0.050-1.079 0-1.631-0.59-1.631-1.781z"></path>
<path fill="#fff" style="fill: var(--color3, #fff)" d="M77.61 22.454v-8.141l1.568-0.125v7.991c0 0.288 0.050 0.502 0.151 0.627s0.263 0.188 0.477 0.188c0.1 0 0.238-0.025 0.414-0.075l0.188 1.129c-0.151 0.063-0.326 0.113-0.552 0.138-0.213 0.038-0.414 0.050-0.615 0.050-1.079 0-1.631-0.59-1.631-1.781z"></path>
<path fill="#fff" style="fill: var(--color3, #fff)" d="M86.943 20.861h-4.503c0.075 1.443 0.765 2.158 2.057 2.158 0.326 0 0.652-0.038 0.991-0.113s0.665-0.188 0.978-0.314l0.339 1.079c-0.765 0.376-1.631 0.564-2.597 0.564-0.728 0-1.355-0.138-1.857-0.414s-0.878-0.677-1.129-1.192c-0.251-0.514-0.376-1.142-0.376-1.882 0-0.765 0.138-1.417 0.401-1.969s0.64-0.966 1.116-1.254c0.477-0.288 1.029-0.439 1.656-0.439 0.652 0 1.192 0.151 1.631 0.452s0.765 0.715 0.966 1.217c0.213 0.502 0.314 1.066 0.314 1.681v0.427zM85.4 19.857c-0.025-0.552-0.163-0.966-0.414-1.229-0.251-0.276-0.577-0.414-0.991-0.414-0.401 0-0.728 0.138-1.004 0.414-0.263 0.276-0.439 0.69-0.514 1.229h2.923z"></path>
<path fill="#fff" style="fill: var(--color3, #fff)" d="M88.21 18.954c0-0.376-0.013-0.953-0.050-1.731h1.48c0.025 0.188 0.050 0.427 0.075 0.69s0.038 0.477 0.050 0.652c0.188-0.301 0.364-0.552 0.539-0.765s0.389-0.376 0.615-0.502c0.238-0.125 0.502-0.201 0.803-0.201 0.238 0 0.452 0.025 0.627 0.075l-0.201 1.367c-0.151-0.050-0.326-0.075-0.514-0.075-0.376 0-0.69 0.1-0.966 0.288s-0.577 0.502-0.891 0.941v4.428h-1.568v-5.168z"></path>
<path fill="#fff" style="fill: var(--color3, #fff)" d="M93.29 26.92c-0.226-0.038-0.414-0.088-0.564-0.138l0.288-1.154c0.1 0.025 0.238 0.063 0.401 0.088s0.314 0.038 0.464 0.038c0.702 0 1.217-0.452 1.568-1.342l0.1-0.251-2.534-6.949h1.693l1.279 3.876c0.213 0.665 0.339 1.167 0.401 1.53 0.125-0.502 0.263-0.991 0.427-1.493l1.292-3.914h1.593l-2.534 6.975c-0.238 0.665-0.502 1.192-0.778 1.593s-0.602 0.702-0.978 0.903c-0.376 0.201-0.828 0.288-1.367 0.288-0.276 0.013-0.514 0-0.753-0.050z"></path>
<path fill="#fff" style="fill: var(--color3, #fff)" d="M33.317 5.858h2.848l-0.075 0.69h-1.932v1.33h1.819v0.64h-1.819v1.468h2.032l-0.075 0.69h-2.797v-4.817z"></path>
<path fill="#fff" style="fill: var(--color3, #fff)" d="M38.122 8.229l-1.505-2.358h0.941l1.016 1.731 1.066-1.731h0.916l-1.493 2.333 1.606 2.496h-0.966l-1.154-1.894-1.167 1.894h-0.878l1.618-2.471z"></path>
<path fill="#fff" style="fill: var(--color3, #fff)" d="M41.308 5.858h1.305c0.615 0 1.079 0.125 1.405 0.376s0.489 0.615 0.489 1.079c0 0.326-0.075 0.602-0.213 0.84-0.151 0.238-0.351 0.427-0.615 0.552s-0.565 0.188-0.891 0.188c-0.188 0-0.401-0.025-0.627-0.063v1.857h-0.828v-4.829zM43.403 8.016c0.176-0.163 0.263-0.389 0.263-0.677 0-0.301-0.088-0.514-0.276-0.64-0.176-0.125-0.452-0.201-0.803-0.201h-0.439v1.719c0.213 0.038 0.364 0.050 0.477 0.050 0.339-0.013 0.602-0.088 0.778-0.251z"></path>
<path fill="#fff" style="fill: var(--color3, #fff)" d="M45.322 5.858h0.828v4.114h1.995l-0.075 0.715h-2.76v-4.829z"></path>
<path fill="#fff" style="fill: var(--color3, #fff)" d="M49.424 10.449c-0.351-0.201-0.627-0.489-0.815-0.853s-0.276-0.79-0.276-1.28c0-0.514 0.1-0.953 0.301-1.33s0.489-0.677 0.866-0.878c0.376-0.213 0.815-0.314 1.33-0.314 0.489 0 0.903 0.1 1.254 0.301s0.615 0.489 0.803 0.853c0.188 0.364 0.276 0.79 0.276 1.267 0 0.514-0.1 0.966-0.301 1.355-0.201 0.376-0.489 0.677-0.866 0.878s-0.815 0.314-1.317 0.314c-0.489-0.013-0.903-0.113-1.254-0.314zM51.581 9.86c0.238-0.151 0.414-0.376 0.527-0.652s0.176-0.59 0.176-0.941c0-0.351-0.050-0.652-0.151-0.928s-0.263-0.489-0.489-0.652c-0.226-0.163-0.514-0.238-0.866-0.238-0.339 0-0.627 0.088-0.866 0.251s-0.414 0.376-0.527 0.652c-0.113 0.276-0.176 0.577-0.176 0.903 0 0.351 0.050 0.665 0.163 0.941s0.276 0.489 0.514 0.652c0.226 0.163 0.514 0.238 0.853 0.238 0.326 0.013 0.602-0.075 0.84-0.226z"></path>
<path fill="#fff" style="fill: var(--color3, #fff)" d="M54.078 5.858h1.505c0.552 0 0.966 0.113 1.254 0.326 0.288 0.226 0.426 0.539 0.426 0.941 0 0.251-0.050 0.477-0.151 0.677s-0.226 0.351-0.376 0.477c-0.151 0.125-0.301 0.213-0.464 0.276l1.48 2.133h-0.966l-1.254-1.919h-0.615v1.919h-0.828v-4.829zM55.382 8.141c0.201 0 0.376-0.038 0.539-0.113 0.151-0.075 0.276-0.188 0.364-0.339 0.088-0.138 0.125-0.314 0.125-0.502 0-0.238-0.075-0.414-0.226-0.527s-0.376-0.163-0.665-0.163h-0.602v1.656h0.464z"></path>
<path fill="#fff" style="fill: var(--color3, #fff)" d="M58.405 5.858h2.847l-0.075 0.69h-1.932v1.33h1.819v0.64h-1.819v1.468h2.032l-0.075 0.69h-2.797v-4.817z"></path>
<path fill="#fff" style="fill: var(--color3, #fff)" d="M64.351 5.858h0.828v4.829h-0.828v-4.829z"></path>
<path fill="#fff" style="fill: var(--color3, #fff)" d="M67.387 6.561h-1.493l0.075-0.702h3.751l-0.075 0.702h-1.417v4.127h-0.828v-4.127z"></path>
<path fill="#fff" style="fill: var(--color3, #fff)" d="M73.333 10.449c-0.351-0.201-0.627-0.489-0.815-0.853s-0.276-0.79-0.276-1.28c0-0.514 0.1-0.953 0.301-1.33s0.489-0.677 0.866-0.878c0.376-0.213 0.815-0.314 1.33-0.314 0.489 0 0.903 0.1 1.254 0.301s0.615 0.489 0.803 0.853c0.188 0.364 0.276 0.79 0.276 1.267 0 0.514-0.1 0.966-0.301 1.355-0.201 0.376-0.489 0.677-0.866 0.878s-0.815 0.314-1.317 0.314c-0.477-0.013-0.903-0.113-1.254-0.314zM75.49 9.86c0.238-0.151 0.414-0.376 0.527-0.652s0.176-0.59 0.176-0.941c0-0.351-0.050-0.652-0.151-0.928s-0.263-0.489-0.489-0.652c-0.226-0.163-0.514-0.238-0.866-0.238-0.339 0-0.627 0.088-0.866 0.251s-0.414 0.376-0.527 0.652c-0.113 0.276-0.176 0.577-0.176 0.903 0 0.351 0.050 0.665 0.163 0.941s0.276 0.489 0.514 0.652c0.226 0.163 0.514 0.238 0.853 0.238 0.326 0.013 0.615-0.075 0.84-0.226z"></path>
<path fill="#fff" style="fill: var(--color3, #fff)" d="M77.987 5.858h0.953l2.383 3.738c-0.025-0.351-0.025-0.677-0.025-0.978v-2.76h0.778v4.829h-0.928l-2.421-3.801c0.025 0.426 0.038 0.815 0.038 1.142v2.659h-0.778v-4.829z"></path>
<path fill="#c8102e" style="fill: var(--color4, #c8102e)" d="M21.613 5.82h-8.906c-4.19 0-5.733 1.53-5.733 5.733v8.906c0 4.19 1.53 5.733 5.733 5.733h8.906c4.19 0 5.733-1.53 5.733-5.733v-8.906c0-4.202-1.53-5.733-5.733-5.733z"></path>
<path fill="#fff" style="fill: var(--color3, #fff)" d="M11.026 16.006h0.539v2.659h-0.539v-1.079h-1.217v1.079h-0.539v-2.659h0.539v1.079h1.217v-1.079zM14.062 17.524c0 0.427-0.213 0.665-0.602 0.665s-0.615-0.238-0.615-0.677v-1.505h-0.539v1.518c0 0.753 0.414 1.179 1.142 1.179s1.154-0.439 1.154-1.204v-1.505h-0.539v1.53zM20.309 17.838l-0.602-1.831h-0.439l-0.602 1.831-0.59-1.831h-0.577l0.928 2.659h0.452l0.602-1.744 0.602 1.744h0.452l0.928-2.659h-0.564l-0.59 1.831zM22.416 17.524h0.978v-0.489h-0.978v-0.539h1.43v-0.489h-1.957v2.659h2.007v-0.489h-1.48v-0.652zM24.549 18.666h0.527v-2.659h-0.527v2.659zM15.668 18.114l-0.238 0.552h-0.552l1.167-2.659h0.477l1.167 2.659h-0.564l-0.238-0.552h-1.217zM15.868 17.624h0.815l-0.414-0.953-0.401 0.953z"></path>
<path fill="#fff" style="fill: var(--color3, #fff)" d="M17.173 12.619c-1.869 0-3.387-1.518-3.387-3.387h0.477c0 1.606 1.305 2.91 2.91 2.91s2.91-1.305 2.91-2.91h0.477c0 1.857-1.518 3.387-3.387 3.387z"></path>
</symbol>
<symbol id="icon-app-store" viewBox="0 0 125 32">
<path fill="#a6a6a6" style="fill: var(--color5, #a6a6a6)" d="M117.257 0h-109.629c-0.293 0-0.583 0-0.876 0.002-0.245 0.002-0.488 0.006-0.735 0.010-0.571 0.007-1.125 0.058-1.666 0.15l0.063-0.009c-0.57 0.099-1.081 0.273-1.551 0.516l0.030-0.014c-0.498 0.258-0.924 0.572-1.295 0.943l-0 0c-0.373 0.37-0.687 0.798-0.929 1.269l-0.013 0.028c-0.229 0.441-0.403 0.952-0.496 1.491l-0.004 0.031c-0.085 0.477-0.136 1.031-0.143 1.595l-0 0.007c-0.007 0.245-0.008 0.491-0.012 0.737v18.491c0.004 0.248 0.005 0.489 0.012 0.738 0.007 0.571 0.059 1.124 0.152 1.663l-0.009-0.062c0.097 0.571 0.271 1.082 0.514 1.553l-0.014-0.029c0.255 0.497 0.57 0.923 0.942 1.291l0.001 0.001c0.369 0.373 0.796 0.687 1.267 0.93l0.028 0.013c0.44 0.229 0.95 0.405 1.488 0.5l0.032 0.005c0.477 0.083 1.031 0.134 1.596 0.141l0.008 0c0.247 0.005 0.49 0.009 0.735 0.009 0.293 0.002 0.582 0.002 0.876 0.002h109.629c0.288 0 0.58 0 0.867-0.002 0.244 0 0.494-0.003 0.738-0.009 0.571-0.007 1.124-0.058 1.663-0.15l-0.063 0.009c0.573-0.101 1.085-0.276 1.557-0.519l-0.031 0.014c0.498-0.256 0.925-0.571 1.293-0.943l0-0c0.372-0.369 0.687-0.795 0.932-1.263l0.013-0.028c0.227-0.441 0.4-0.953 0.491-1.492l0.004-0.031c0.084-0.475 0.138-1.028 0.148-1.591l0-0.010c0.003-0.248 0.003-0.489 0.003-0.738 0.006-0.291 0.006-0.58 0.006-0.875v-16.743c0-0.293 0-0.584-0.006-0.873 0-0.245 0-0.491-0.003-0.737-0.011-0.574-0.064-1.127-0.158-1.666l0.009 0.064c-0.095-0.57-0.268-1.082-0.509-1.553l0.014 0.030c-0.503-0.967-1.272-1.736-2.21-2.226l-0.029-0.014c-0.442-0.228-0.954-0.402-1.494-0.497l-0.032-0.005c-0.477-0.084-1.030-0.135-1.594-0.141l-0.006-0c-0.244-0.004-0.494-0.009-0.738-0.010-0.288-0.002-0.58-0.002-0.867-0.002z"></path>
<path fill="#000" style="fill: var(--color2, #000)" d="M6.756 31.3c-0.244 0-0.482-0.003-0.723-0.009-0.534-0.007-1.050-0.054-1.555-0.139l0.059 0.008c-0.497-0.087-0.942-0.24-1.352-0.451l0.026 0.012c-0.43-0.22-0.799-0.492-1.117-0.813l-0-0c-0.324-0.318-0.596-0.687-0.805-1.093l-0.011-0.024c-0.199-0.384-0.351-0.829-0.431-1.299l-0.004-0.027c-0.078-0.447-0.126-0.965-0.133-1.493l-0-0.007c-0.005-0.169-0.012-0.73-0.012-0.73v-18.48s0.007-0.553 0.012-0.716c0.007-0.534 0.055-1.052 0.141-1.556l-0.008 0.059c0.084-0.498 0.235-0.945 0.447-1.356l-0.012 0.026c0.22-0.431 0.491-0.8 0.812-1.118l0-0c0.321-0.322 0.691-0.594 1.097-0.806l0.025-0.012c0.383-0.198 0.827-0.349 1.295-0.431l0.028-0.004c0.447-0.077 0.965-0.124 1.494-0.131l0.007-0 0.722-0.010 112.094 0.010c0.53 0.006 1.044 0.054 1.545 0.138l-0.058-0.008c0.501 0.087 0.95 0.239 1.364 0.451l-0.027-0.012c0.834 0.436 1.498 1.101 1.92 1.911l0.012 0.025c0.196 0.382 0.345 0.825 0.424 1.292l0.004 0.027c0.078 0.447 0.129 0.968 0.139 1.5l0 0.010c0.002 0.227 0.002 0.47 0.002 0.712 0.006 0.3 0.006 0.586 0.006 0.873v16.743c0 0.291 0 0.574-0.006 0.86 0 0.26 0 0.498-0.003 0.744-0.010 0.532-0.060 1.044-0.145 1.543l0.009-0.060c-0.082 0.5-0.233 0.949-0.444 1.362l0.012-0.026c-0.222 0.426-0.493 0.792-0.812 1.108l-0 0c-0.319 0.323-0.689 0.596-1.095 0.807l-0.024 0.011c-0.386 0.2-0.834 0.353-1.306 0.436l-0.028 0.004c-0.445 0.077-0.962 0.124-1.489 0.13l-0.007 0c-0.234 0.005-0.48 0.009-0.718 0.009l-0.867 0.002z"></path>
<path fill="#fff" style="fill: var(--color3, #fff)" d="M19.815 16.241c0.019-1.4 0.761-2.622 1.869-3.312l0.017-0.010c-0.718-1.017-1.874-1.684-3.186-1.726l-0.006-0c-1.343-0.141-2.646 0.804-3.33 0.804-0.698 0-1.752-0.79-2.887-0.767-1.536 0.051-2.86 0.909-3.567 2.161l-0.011 0.021c-1.547 2.679-0.393 6.616 1.089 8.781 0.742 1.060 1.608 2.245 2.742 2.203 1.11-0.046 1.524-0.708 2.864-0.708 1.327 0 1.716 0.708 2.873 0.681 1.191-0.019 1.941-1.065 2.656-2.135 0.506-0.71 0.92-1.531 1.198-2.412l0.017-0.062c-1.383-0.596-2.334-1.946-2.335-3.519v-0z"></path>
<path fill="#fff" style="fill: var(--color3, #fff)" d="M17.63 9.769c0.562-0.671 0.903-1.543 0.903-2.495 0-0.105-0.004-0.209-0.012-0.311l0.001 0.014c-1.028 0.111-1.925 0.6-2.562 1.323l-0.004 0.004c-0.573 0.65-0.923 1.508-0.923 2.448 0 0.085 0.003 0.169 0.008 0.252l-0.001-0.011c0.010 0 0.022 0 0.034 0 1.030 0 1.95-0.475 2.551-1.218l0.005-0.006z"></path>
<path fill="#fff" style="fill: var(--color3, #fff)" d="M36.919 24.397v-7.312h-0.048l-2.995 7.236h-1.143l-3.002-7.236h-0.048v7.312h-1.405v-9.934h1.784l3.215 7.841h0.055l3.209-7.841h1.79v9.934z"></path>
<path fill="#fff" style="fill: var(--color3, #fff)" d="M39.517 22.338c0-1.266 0.97-2.031 2.692-2.134l1.983-0.11v-0.551c0-0.805-0.53-1.26-1.433-1.26-0.055-0.008-0.118-0.012-0.182-0.012-0.639 0-1.177 0.433-1.336 1.022l-0.002 0.010h-1.391c0.041-1.309 1.26-2.238 2.953-2.238 1.728 0 2.871 0.943 2.871 2.368v4.964h-1.425v-1.191h-0.034c-0.453 0.791-1.293 1.316-2.255 1.316-0.011 0-0.022-0-0.033-0l0.002 0c-0.064 0.007-0.139 0.010-0.214 0.010-1.212 0-2.194-0.982-2.196-2.193v-0zM44.192 21.684v-0.558l-1.784 0.11c-0.888 0.055-1.391 0.441-1.391 1.060 0 0.634 0.523 1.047 1.322 1.047 0.035 0.003 0.076 0.004 0.118 0.004 0.933 0 1.695-0.736 1.735-1.66l0-0.004z"></path>
<path fill="#fff" style="fill: var(--color3, #fff)" d="M51.914 19.646c-0.129-0.765-0.786-1.34-1.578-1.34-0.045 0-0.090 0.002-0.135 0.006l0.006-0c-1.143 0-1.9 0.957-1.9 2.465 0 1.542 0.764 2.471 1.913 2.471 0.047 0.005 0.101 0.008 0.155 0.008 0.773 0 1.414-0.562 1.537-1.299l0.001-0.009h1.432c-0.177 1.445-1.396 2.553-2.874 2.553-0.093 0-0.185-0.004-0.276-0.013l0.012 0.001c-2.066 0-3.415-1.412-3.415-3.711 0-2.252 1.349-3.711 3.401-3.711 0.074-0.007 0.159-0.010 0.246-0.010 1.495 0 2.727 1.127 2.893 2.578l0.001 0.013z"></path>
<path fill="#fff" style="fill: var(--color3, #fff)" d="M63.007 21.712h-3.787l-0.909 2.685h-1.604l3.587-9.934h1.666l3.587 9.934h-1.631zM59.613 20.473h3.002l-1.48-4.358h-0.041z"></path>
<path fill="#fff" style="fill: var(--color3, #fff)" d="M73.293 20.776c0 2.251-1.205 3.697-3.023 3.697-0.038 0.002-0.083 0.003-0.128 0.003-0.921 0-1.724-0.507-2.144-1.258l-0.006-0.012h-0.034v3.587h-1.487v-9.639h1.439v1.205h0.027c0.453-0.772 1.279-1.282 2.223-1.282 0.029 0 0.058 0 0.087 0.001l-0.004-0c1.838 0 3.050 1.453 3.050 3.698zM71.765 20.776c0-1.466-0.758-2.43-1.914-2.43-1.136 0-1.9 0.984-1.9 2.43 0 1.459 0.764 2.437 1.9 2.437 1.156 0 1.914-0.957 1.914-2.437z"></path>
<path fill="#fff" style="fill: var(--color3, #fff)" d="M81.265 20.776c0 2.251-1.205 3.697-3.023 3.697-0.038 0.002-0.083 0.003-0.128 0.003-0.921 0-1.724-0.507-2.144-1.258l-0.006-0.012h-0.034v3.587h-1.487v-9.639h1.439v1.205h0.027c0.453-0.772 1.279-1.282 2.223-1.282 0.029 0 0.058 0 0.087 0.001l-0.004-0c1.838 0 3.050 1.453 3.050 3.698zM79.737 20.776c0-1.466-0.758-2.43-1.914-2.43-1.136 0-1.9 0.984-1.9 2.43 0 1.459 0.764 2.437 1.9 2.437 1.156 0 1.914-0.957 1.914-2.437z"></path>
<path fill="#fff" style="fill: var(--color3, #fff)" d="M86.534 21.629c0.11 0.985 1.067 1.632 2.375 1.632 1.253 0 2.155-0.647 2.155-1.535 0-0.771-0.544-1.233-1.831-1.549l-1.287-0.31c-1.824-0.441-2.671-1.294-2.671-2.678 0-1.714 1.494-2.891 3.615-2.891 2.099 0 3.538 1.177 3.587 2.891h-1.501c-0.090-0.991-0.909-1.59-2.107-1.59s-2.017 0.605-2.017 1.487c0 0.702 0.523 1.116 1.804 1.432l1.095 0.269c2.038 0.482 2.885 1.301 2.885 2.754 0 1.859-1.48 3.023-3.835 3.023-2.203 0-3.691-1.137-3.787-2.934z"></path>
<path fill="#fff" style="fill: var(--color3, #fff)" d="M95.843 15.44v1.714h1.377v1.177h-1.377v3.993c0 0.62 0.276 0.909 0.881 0.909 0.176-0.003 0.345-0.016 0.512-0.037l-0.023 0.002v1.17c-0.225 0.044-0.485 0.069-0.75 0.069-0.027 0-0.053-0-0.080-0.001l0.004 0c-1.466 0-2.038-0.551-2.038-1.955v-4.152h-1.053v-1.177h1.053v-1.714z"></path>
<path fill="#fff" style="fill: var(--color3, #fff)" d="M98.017 20.776c0-2.279 1.342-3.711 3.435-3.711 2.1 0 3.436 1.432 3.436 3.711 0 2.285-1.329 3.711-3.436 3.711s-3.435-1.426-3.435-3.711zM103.373 20.776c0-1.563-0.716-2.486-1.921-2.486s-1.921 0.93-1.921 2.486c0 1.57 0.716 2.485 1.921 2.485s1.921-0.916 1.921-2.485z"></path>
<path fill="#fff" style="fill: var(--color3, #fff)" d="M106.114 17.154h1.418v1.233h0.034c0.194-0.758 0.871-1.31 1.676-1.31 0.023 0 0.046 0 0.069 0.001l-0.003-0c0.002 0 0.005 0 0.008 0 0.178 0 0.351 0.020 0.517 0.058l-0.015-0.003v1.391c-0.182-0.058-0.391-0.091-0.607-0.091-0.021 0-0.043 0-0.064 0.001l0.003-0c-0.018-0.001-0.039-0.001-0.061-0.001-0.827 0-1.498 0.671-1.498 1.498 0 0.060 0.004 0.119 0.010 0.177l-0.001-0.007v4.296h-1.487z"></path>
<path fill="#fff" style="fill: var(--color3, #fff)" d="M116.672 22.27c-0.2 1.315-1.48 2.217-3.119 2.217-2.107 0-3.415-1.412-3.415-3.677 0-2.272 1.315-3.745 3.352-3.745 2.004 0 3.264 1.377 3.264 3.573v0.509h-5.116v0.090c-0.005 0.050-0.007 0.108-0.007 0.166 0 1.042 0.845 1.886 1.886 1.886 0.024 0 0.049-0 0.073-0.001l-0.004 0c0.046 0.005 0.099 0.007 0.153 0.007 0.684 0 1.27-0.419 1.516-1.015l0.004-0.011zM111.647 20.108h3.621c0.002-0.029 0.003-0.063 0.003-0.097 0-0.962-0.78-1.742-1.742-1.742-0.013 0-0.026 0-0.039 0l0.002-0c-0.003-0-0.007-0-0.011-0-1.013 0-1.834 0.821-1.834 1.834 0 0.002 0 0.003 0 0.005v-0z"></path>
<path fill="#fff" style="fill: var(--color3, #fff)" d="M30.261 6.985c0.045-0.003 0.098-0.005 0.151-0.005 1.166 0 2.112 0.945 2.112 2.112 0 0.094-0.006 0.186-0.018 0.276l0.001-0.011c0 1.525-0.824 2.402-2.246 2.402h-1.724v-4.773zM29.278 11.083h0.9c0.027 0.002 0.058 0.003 0.090 0.003 0.829 0 1.501-0.672 1.501-1.501 0-0.077-0.006-0.153-0.017-0.227l0.001 0.008c0.009-0.061 0.014-0.132 0.014-0.205 0-0.831-0.674-1.505-1.505-1.505-0.029 0-0.058 0.001-0.087 0.003l0.004-0h-0.9z"></path>
<path fill="#fff" style="fill: var(--color3, #fff)" d="M33.345 9.955c-0.005-0.049-0.008-0.105-0.008-0.163 0-0.943 0.764-1.707 1.707-1.707s1.707 0.764 1.707 1.707c0 0.057-0.003 0.114-0.008 0.17l0.001-0.007c0.005 0.050 0.008 0.107 0.008 0.165 0 0.943-0.764 1.707-1.707 1.707s-1.707-0.764-1.707-1.707c0-0.058 0.003-0.116 0.009-0.173l-0.001 0.007zM36.011 9.955c0-0.781-0.351-1.238-0.966-1.238-0.618 0-0.966 0.457-0.966 1.238 0 0.787 0.348 1.24 0.966 1.24 0.616 0 0.966-0.456 0.966-1.24z"></path>
<path fill="#fff" style="fill: var(--color3, #fff)" d="M41.259 11.758h-0.737l-0.745-2.653h-0.056l-0.741 2.653h-0.73l-0.993-3.602h0.721l0.645 2.749h0.053l0.741-2.749h0.682l0.741 2.749h0.056l0.642-2.749h0.711z"></path>
<path fill="#fff" style="fill: var(--color3, #fff)" d="M43.083 8.156h0.684v0.572h0.053c0.171-0.383 0.549-0.645 0.988-0.645 0.031 0 0.061 0.001 0.091 0.004l-0.004-0c0.026-0.002 0.057-0.003 0.088-0.003 0.647 0 1.172 0.525 1.172 1.172 0 0.060-0.005 0.12-0.013 0.178l0.001-0.007v2.332h-0.711v-2.153c0-0.579-0.252-0.867-0.777-0.867-0.011-0.001-0.025-0.001-0.038-0.001-0.456 0-0.826 0.37-0.826 0.826 0 0.031 0.002 0.061 0.005 0.091l-0-0.004v2.107h-0.711z"></path>
<path fill="#fff" style="fill: var(--color3, #fff)" d="M47.275 6.75h0.711v5.009h-0.711z"></path>
<path fill="#fff" style="fill: var(--color3, #fff)" d="M48.974 9.955c-0.005-0.049-0.008-0.105-0.008-0.163 0-0.943 0.764-1.707 1.707-1.707s1.707 0.764 1.707 1.707c0 0.057-0.003 0.114-0.008 0.17l0.001-0.007c0.005 0.050 0.008 0.107 0.008 0.165 0 0.943-0.764 1.707-1.707 1.707s-1.707-0.764-1.707-1.707c0-0.058 0.003-0.116 0.009-0.173l-0.001 0.007zM51.641 9.955c0-0.781-0.351-1.238-0.966-1.238-0.618 0-0.966 0.457-0.966 1.238 0 0.787 0.348 1.24 0.966 1.24 0.616 0 0.966-0.456 0.966-1.24z"></path>
<path fill="#fff" style="fill: var(--color3, #fff)" d="M53.12 10.739c0-0.648 0.483-1.022 1.34-1.075l0.976-0.056v-0.311c0-0.38-0.252-0.595-0.737-0.595-0.397 0-0.672 0.146-0.751 0.4h-0.688c0.073-0.619 0.655-1.016 1.472-1.016 0.903 0 1.413 0.45 1.413 1.211v2.461h-0.684v-0.506h-0.056c-0.218 0.343-0.596 0.567-1.026 0.567-0.020 0-0.039-0-0.059-0.001l0.003 0c-0.034 0.004-0.073 0.006-0.113 0.006-0.599 0-1.086-0.485-1.088-1.084v-0zM55.436 10.432v-0.301l-0.88 0.056c-0.496 0.033-0.721 0.202-0.721 0.52 0 0.324 0.281 0.513 0.668 0.513 0.026 0.003 0.055 0.004 0.086 0.004 0.449 0 0.816-0.348 0.847-0.789l0-0.003z"></path>
<path fill="#fff" style="fill: var(--color3, #fff)" d="M57.078 9.955c0-1.138 0.585-1.859 1.495-1.859 0.016-0.001 0.035-0.001 0.055-0.001 0.453 0 0.847 0.254 1.047 0.627l0.003 0.006h0.053v-1.979h0.711v5.009h-0.681v-0.569h-0.056c-0.22 0.379-0.623 0.629-1.085 0.629-0.016 0-0.032-0-0.048-0.001l0.002 0c-0.916 0-1.495-0.721-1.495-1.862zM57.813 9.955c0 0.764 0.36 1.224 0.962 1.224 0.599 0 0.97-0.466 0.97-1.221 0-0.751-0.374-1.224-0.97-1.224-0.598 0-0.963 0.463-0.963 1.221z"></path>
<path fill="#fff" style="fill: var(--color3, #fff)" d="M63.47 7.091c-0.001-0.008-0.001-0.018-0.001-0.027 0-0.254 0.206-0.461 0.461-0.461s0.461 0.206 0.461 0.461c0 0.254-0.206 0.46-0.46 0.461h-0c-0.007 0-0.014 0.001-0.022 0.001-0.24 0-0.436-0.194-0.438-0.434v-0zM63.575 8.156h0.709v3.602h-0.709z"></path>
<path fill="#fff" style="fill: var(--color3, #fff)" d="M65.43 8.156h0.684v0.572h0.053c0.171-0.383 0.549-0.645 0.988-0.645 0.031 0 0.061 0.001 0.091 0.004l-0.004-0c0.026-0.002 0.057-0.003 0.088-0.003 0.647 0 1.172 0.525 1.172 1.172 0 0.060-0.005 0.12-0.013 0.178l0.001-0.007v2.332h-0.711v-2.153c0-0.579-0.252-0.867-0.777-0.867-0.011-0.001-0.025-0.001-0.039-0.001-0.457 0-0.827 0.37-0.827 0.827 0 0.031 0.002 0.061 0.005 0.091l-0-0.004v2.107h-0.711z"></path>
<path fill="#fff" style="fill: var(--color3, #fff)" d="M71.366 9.955c0-1.138 0.585-1.859 1.495-1.859 0.016-0.001 0.035-0.001 0.055-0.001 0.453 0 0.847 0.254 1.047 0.627l0.003 0.006h0.053v-1.979h0.711v5.009h-0.681v-0.569h-0.056c-0.22 0.379-0.623 0.629-1.085 0.629-0.016 0-0.032-0-0.048-0.001l0.002 0c-0.916 0-1.495-0.721-1.495-1.862zM72.1 9.955c0 0.764 0.36 1.224 0.963 1.224 0.599 0 0.97-0.466 0.97-1.221 0-0.751-0.374-1.224-0.97-1.224-0.598 0-0.963 0.463-0.963 1.221z"></path>
<path fill="#fff" style="fill: var(--color3, #fff)" d="M78.943 10.786c-0.184 0.612-0.742 1.051-1.403 1.051-0.056 0-0.11-0.003-0.164-0.009l0.007 0.001c-0.013 0-0.028 0.001-0.043 0.001-0.904 0-1.636-0.733-1.636-1.636 0-0.079 0.006-0.156 0.016-0.232l-0.001 0.009c-0.009-0.066-0.015-0.143-0.015-0.221 0-0.918 0.744-1.661 1.661-1.661 0.005 0 0.010 0 0.015 0h-0.001c1.002 0 1.607 0.685 1.607 1.816v0.248h-2.544v0.040c-0.002 0.024-0.003 0.052-0.003 0.080 0 0.526 0.426 0.952 0.952 0.952 0.004 0 0.007-0 0.011-0h-0.001c0.031 0.004 0.067 0.006 0.103 0.006 0.322 0 0.604-0.177 0.752-0.439l0.002-0.004zM76.442 9.625h1.82c0.001-0.019 0.002-0.042 0.002-0.064 0-0.48-0.389-0.869-0.869-0.869-0.007 0-0.014 0-0.021 0l0.001-0c-0.003-0-0.007-0-0.012-0-0.509 0-0.921 0.412-0.921 0.921 0 0.004 0 0.008 0 0.013v-0.001z"></path>
</symbol>

<symbol id="icon-google" viewBox="0 0 125 32">
<linearGradient id="a" x1="31.8" y1="183.29" x2="15.02" y2="166.51" gradientTransform="matrix(1 0 0 -1 0 202)" gradientUnits="userSpaceOnUse">
<stop offset="0" stop-color="#00a0ff"/>
<stop offset=".01" stop-color="#00a1ff"/>
<stop offset=".26" stop-color="#00beff"/>
<stop offset=".51" stop-color="#00d2ff"/>
<stop offset=".76" stop-color="#00dfff"/>
<stop offset="1" stop-color="#00e3ff"/>
</linearGradient>
<linearGradient id="b" x1="43.83" y1="172" x2="19.64" y2="172" gradientTransform="matrix(1 0 0 -1 0 202)" gradientUnits="userSpaceOnUse">
<stop offset="0" stop-color="#ffe000"/>
<stop offset=".41" stop-color="#ffbd00"/>
<stop offset=".78" stop-color="orange"/>
<stop offset="1" stop-color="#ff9c00"/>
</linearGradient>
<linearGradient id="c" x1="34.83" y1="169.7" x2="12.07" y2="146.95" gradientTransform="matrix(1 0 0 -1 0 202)" gradientUnits="userSpaceOnUse">
<stop offset="0" stop-color="#ff3a44"/>
<stop offset="1" stop-color="#c31162"/>
</linearGradient>
<linearGradient id="d" x1="17.3" y1="191.82" x2="27.46" y2="181.66" gradientTransform="matrix(1 0 0 -1 0 202)" gradientUnits="userSpaceOnUse">
<stop offset="0" stop-color="#32a071"/>
<stop offset=".07" stop-color="#2da771"/>
<stop offset=".48" stop-color="#15cf74"/>
<stop offset=".8" stop-color="#06e775"/>
<stop offset="1" stop-color="#00f076"/>
</linearGradient>
</defs>
<title>af_get</title>
<path fill="none" d="M0 0h155v60H0z"/>
<rect x="10" y="10" width="135" height="40" rx="5" ry="5"/>
<path d="M140 10.8a4.2 4.2 0 0 1 4.2 4.2v30a4.2 4.2 0 0 1-4.2 4.2H15a4.2 4.2 0 0 1-4.2-4.2V15a4.2 4.2 0 0 1 4.2-4.2h125m0-.8H15a5 5 0 0 0-5 5v30a5 5 0 0 0 5 5h125a5 5 0 0 0 5-5V15a5 5 0 0 0-5-5z" fill="#a6a6a6"/>
<path d="M55.81 17l-2.23 2.57L56 23h-1l-2-2.8-.92 1.06V23h-.77v-6h.77v3.09L54.81 17zM56.75 23v-6h2a1.9 1.9 0 0 1 1.32.51 1.73 1.73 0 0 1 .15 2.39 1.78 1.78 0 0 1-1 .61L60.91 23H60l-1.62-2.43h-.86V23zm.77-3.15h1.24a1.13 1.13 0 0 0 .79-.3 1 1 0 0 0 .33-.76 1.06 1.06 0 0 0-.29-.72 1 1 0 0 0-.78-.33h-1.29zM63.88 23h-.77v-2.77l-2-3.21H62l1.48 2.44L65 17h.91l-2 3.21zM68.75 23v-6h1.83a3 3 0 0 1 2.21.83 2.94 2.94 0 0 1 .84 2.17 2.94 2.94 0 0 1-.83 2.17 3 3 0 0 1-2.21.83zm.77-.74h1.06a2.25 2.25 0 0 0 1.65-.6 2.23 2.23 0 0 0 .61-1.66 2.09 2.09 0 0 0-2.25-2.26h-1.07zM74.71 23v-6h.77v6zM78.9 23h-.77v-5.25h-1.68V17h4.12v.74H78.9zM88.38 22.24a3.12 3.12 0 0 1-4.4 0 3.24 3.24 0 0 1 0-4.45 3.1 3.1 0 0 1 4.4 0 3.23 3.23 0 0 1 0 4.45zm-3.83-.5a2.31 2.31 0 0 0 3.26 0 2.56 2.56 0 0 0 0-3.44 2.31 2.31 0 0 0-3.26 0 2.56 2.56 0 0 0 0 3.44zM91.12 23h-.77v-6h2a1.9 1.9 0 0 1 1.32.51 1.74 1.74 0 0 1 0 2.56 1.89 1.89 0 0 1-1.32.51h-1.23zm0-3.17h1.29a1 1 0 0 0 .78-.33 1 1 0 0 0 0-1.44 1 1 0 0 0-.78-.33h-1.29z" fill="#fff" stroke="#fff" stroke-miterlimit="10" stroke-width=".2"/>
<path d="M78.14 31.75A4.25 4.25 0 1 0 82.41 36a4.19 4.19 0 0 0-4.27-4.25zm0 6.83a2.58 2.58 0 1 1 2.4-2.58 2.46 2.46 0 0 1-2.4 2.58zm-9.31-6.83A4.25 4.25 0 1 0 73.09 36a4.19 4.19 0 0 0-4.27-4.25zm0 6.83A2.58 2.58 0 1 1 71.22 36a2.46 2.46 0 0 1-2.4 2.58zm-11.09-5.52v1.8h4.32a3.77 3.77 0 0 1-1 2.27 4.42 4.42 0 0 1-3.33 1.32 4.8 4.8 0 0 1 0-9.6A4.6 4.6 0 0 1 61 30.14l1.27-1.27A6.29 6.29 0 0 0 57.74 27a6.61 6.61 0 1 0 0 13.21 6 6 0 0 0 4.61-1.85 6 6 0 0 0 1.56-4.22 5.87 5.87 0 0 0-.1-1.13zm45.31 1.4a4 4 0 0 0-3.64-2.71 4 4 0 0 0-4 4.25 4.16 4.16 0 0 0 4.22 4.25 4.23 4.23 0 0 0 3.54-1.88l-1.45-1a2.43 2.43 0 0 1-2.09 1.18 2.16 2.16 0 0 1-2.06-1.29l5.69-2.35zm-5.8 1.42a2.33 2.33 0 0 1 2.22-2.48 1.65 1.65 0 0 1 1.58.9zM92.63 40h1.87V27.5h-1.87zm-3.06-7.3h-.07a3 3 0 0 0-2.24-1 4.26 4.26 0 0 0 0 8.51 2.9 2.9 0 0 0 2.24-1h.06v.61c0 1.63-.87 2.5-2.27 2.5a2.35 2.35 0 0 1-2.14-1.51l-1.63.68A4.05 4.05 0 0 0 87.29 44c2.19 0 4-1.29 4-4.43V32h-1.72zm-2.14 5.88a2.59 2.59 0 0 1 0-5.16A2.4 2.4 0 0 1 89.7 36a2.38 2.38 0 0 1-2.28 2.58zm24.38-11.08h-4.47V40h1.87v-4.74h2.61a3.89 3.89 0 1 0 0-7.76zm0 6h-2.61v-4.26h2.65a2.14 2.14 0 1 1 0 4.29zm11.53-1.8a3.5 3.5 0 0 0-3.33 1.91l1.66.69a1.77 1.77 0 0 1 1.7-.92 1.8 1.8 0 0 1 2 1.61v.13a4.13 4.13 0 0 0-1.95-.48c-1.79 0-3.6 1-3.6 2.81a2.89 2.89 0 0 0 3.1 2.75 2.63 2.63 0 0 0 2.4-1.2h.06v1h1.8v-4.81c0-2.19-1.66-3.46-3.79-3.46zm-.23 6.85c-.61 0-1.46-.31-1.46-1.06 0-1 1.06-1.33 2-1.33a3.32 3.32 0 0 1 1.7.42 2.26 2.26 0 0 1-2.19 2zM133.74 32l-2.14 5.42h-.06L129.32 32h-2l3.33 7.58-1.9 4.21h1.95L135.82 32zm-16.81 8h1.87V27.5h-1.87z" fill="#fff"/>
<path d="M20.44 17.54a2 2 0 0 0-.46 1.4v22.12a2 2 0 0 0 .46 1.4l.07.07L32.9 30.15v-.29L20.51 17.47z" fill="url(#a)"/>
<path d="M37 34.28l-4.1-4.13v-.29l4.1-4.14.09.05L42 28.56c1.4.79 1.4 2.09 0 2.89l-4.89 2.78z" fill="url(#b)"/>
<path d="M37.12 34.22L32.9 30 20.44 42.46a1.63 1.63 0 0 0 2.08.06l14.61-8.3" fill="url(#c)"/>
<path d="M37.12 25.78l-14.61-8.3a1.63 1.63 0 0 0-2.08.06L32.9 30z" fill="url(#d)"/>
<path d="M37 34.13l-14.49 8.25a1.67 1.67 0 0 1-2 0l-.07.07.07.07a1.66 1.66 0 0 0 2 0l14.61-8.3z" style="isolation:isolate" opacity=".2"/>
<path d="M20.44 42.32a2 2 0 0 1-.46-1.4v.15a2 2 0 0 0 .46 1.4l.07-.07zM42 31.3l-5 2.83.09.09L42 31.44A1.75 1.75 0 0 0 43 30a1.86 1.86 0 0 1-1 1.3z" style="isolation:isolate" opacity=".12"/>
<path d="M22.51 17.62L42 28.7a1.86 1.86 0 0 1 1 1.3 1.75 1.75 0 0 0-1-1.44L22.51 17.48c-1.4-.79-2.54-.13-2.54 1.47v.15c.03-1.61 1.15-2.27 2.54-1.48z" style="isolation:isolate" fill="#fff" opacity=".25"/>
</symbol>
</defs>
</svg>
