<svg aria-hidden="true" style="position: absolute; width: 0; height: 0; overflow: hidden;" version="1.1" xmlns="http://www.w3.org/2000/svg" xmlns:xlink="http://www.w3.org/1999/xlink">
<defs>
<symbol id="icon-apple" viewBox="0 0 96 32">
<path fill="#a6a6a6" style="fill: var(--color1, #a6a6a6)" d="M88.114-0.001h-80.485c-0.294 0-0.584 0-0.876 0.002-0.245 0.002-0.488 0.006-0.735 0.010-0.571 0.006-1.125 0.057-1.666 0.149l0.062-0.009c-0.57 0.099-1.080 0.273-1.55 0.516l0.030-0.014c-0.498 0.258-0.925 0.573-1.296 0.944l-0 0c-0.372 0.37-0.687 0.797-0.929 1.268l-0.013 0.028c-0.229 0.441-0.403 0.952-0.496 1.491l-0.004 0.031c-0.085 0.477-0.136 1.031-0.143 1.595l-0 0.006c-0.008 0.246-0.008 0.492-0.012 0.737v18.495c0.004 0.248 0.005 0.488 0.012 0.737 0.007 0.571 0.059 1.125 0.153 1.664l-0.009-0.062c0.096 0.571 0.27 1.083 0.513 1.554l-0.014-0.029c0.255 0.497 0.57 0.922 0.942 1.289l0.001 0.001c0.369 0.373 0.796 0.687 1.266 0.93l0.028 0.013c0.44 0.229 0.95 0.404 1.489 0.499l0.032 0.005c0.477 0.083 1.031 0.134 1.596 0.142l0.008 0c0.248 0.006 0.49 0.009 0.735 0.009 0.293 0.002 0.582 0.002 0.876 0.002h80.485c0.288 0 0.579 0 0.867-0.002 0.243 0 0.494-0.003 0.738-0.008 0.571-0.008 1.124-0.059 1.663-0.151l-0.063 0.009c0.573-0.101 1.085-0.276 1.557-0.518l-0.031 0.014c0.498-0.256 0.925-0.571 1.293-0.943l0-0c0.372-0.369 0.687-0.795 0.932-1.263l0.013-0.028c0.227-0.441 0.4-0.953 0.491-1.493l0.004-0.031c0.084-0.475 0.138-1.028 0.148-1.592l0-0.010c0.003-0.248 0.003-0.488 0.003-0.737 0.006-0.291 0.006-0.58 0.006-0.875v-16.744c0-0.293 0-0.584-0.006-0.874 0-0.245 0-0.491-0.003-0.736-0.010-0.574-0.064-1.127-0.157-1.667l0.009 0.064c-0.096-0.57-0.269-1.082-0.51-1.552l0.014 0.030c-0.503-0.967-1.272-1.736-2.21-2.227l-0.029-0.014c-0.442-0.228-0.954-0.402-1.494-0.497l-0.032-0.005c-0.477-0.084-1.030-0.135-1.594-0.141l-0.006-0c-0.244-0.004-0.494-0.009-0.738-0.010-0.288-0.002-0.58-0.002-0.867-0.002z"></path>
<path fill="#000" style="fill: var(--color2, #000)" d="M6.756 31.301c-0.244 0-0.482-0.003-0.723-0.008-0.534-0.007-1.051-0.055-1.556-0.139l0.059 0.008c-0.497-0.087-0.942-0.24-1.351-0.451l0.026 0.012c-0.43-0.22-0.799-0.492-1.117-0.813l-0-0c-0.324-0.318-0.596-0.687-0.805-1.094l-0.011-0.024c-0.2-0.384-0.351-0.829-0.431-1.299l-0.004-0.027c-0.078-0.447-0.126-0.965-0.133-1.494l-0-0.007c-0.006-0.168-0.012-0.73-0.012-0.73v-18.481s0.007-0.554 0.012-0.716c0.007-0.534 0.054-1.052 0.14-1.556l-0.008 0.058c0.084-0.498 0.236-0.945 0.447-1.356l-0.012 0.026c0.22-0.431 0.491-0.8 0.812-1.118l0-0c0.321-0.322 0.691-0.595 1.097-0.807l0.025-0.012c0.383-0.198 0.827-0.349 1.295-0.431l0.028-0.004c0.447-0.077 0.966-0.124 1.494-0.131l0.007-0 0.722-0.010 82.951 0.010c0.53 0.006 1.044 0.053 1.545 0.138l-0.058-0.008c0.501 0.087 0.95 0.239 1.364 0.451l-0.027-0.012c0.834 0.436 1.498 1.101 1.92 1.911l0.012 0.025c0.196 0.382 0.345 0.825 0.424 1.292l0.004 0.027c0.078 0.447 0.129 0.968 0.139 1.499l0 0.010c0.002 0.226 0.002 0.47 0.002 0.712 0.006 0.3 0.006 0.586 0.006 0.874v16.744c0 0.29 0 0.574-0.006 0.86 0 0.26 0 0.498-0.003 0.744-0.010 0.531-0.059 1.043-0.145 1.543l0.009-0.060c-0.082 0.5-0.233 0.949-0.444 1.362l0.012-0.026c-0.222 0.426-0.493 0.792-0.813 1.109l-0 0c-0.319 0.323-0.689 0.596-1.096 0.806l-0.024 0.011c-0.386 0.2-0.834 0.353-1.306 0.436l-0.028 0.004c-0.445 0.077-0.962 0.124-1.489 0.13l-0.006 0c-0.234 0.006-0.48 0.009-0.718 0.009l-0.867 0.002z"></path>
<path fill="#fff" style="fill: var(--color3, #fff)" d="M19.816 16.24c0.019-1.399 0.761-2.621 1.868-3.311l0.017-0.010c-0.718-1.017-1.873-1.684-3.186-1.726l-0.006-0c-1.344-0.141-2.647 0.804-3.331 0.804-0.698 0-1.752-0.79-2.887-0.766-1.536 0.051-2.86 0.909-3.568 2.161l-0.011 0.021c-1.547 2.679-0.393 6.616 1.089 8.781 0.742 1.060 1.608 2.244 2.743 2.203 1.11-0.046 1.524-0.708 2.864-0.708 1.327 0 1.715 0.708 2.872 0.682 1.191-0.020 1.941-1.066 2.656-2.136 0.507-0.71 0.921-1.531 1.199-2.412l0.017-0.062c-1.383-0.596-2.335-1.947-2.336-3.52v-0zM17.631 9.768c0.562-0.671 0.903-1.543 0.903-2.495 0-0.104-0.004-0.208-0.012-0.31l0.001 0.014c-1.028 0.111-1.925 0.6-2.563 1.324l-0.004 0.004c-0.573 0.65-0.923 1.508-0.923 2.448 0 0.084 0.003 0.168 0.008 0.251l-0.001-0.011c0.010 0 0.022 0 0.034 0 1.030 0 1.95-0.475 2.551-1.218l0.005-0.006z"></path>
<path fill="#fff" style="fill: var(--color3, #fff)" d="M33.844 21.712h-3.786l-0.91 2.685h-1.604l3.587-9.935h1.667l3.587 9.935h-1.631zM30.449 20.472h3.002l-1.48-4.357h-0.041zM44.131 20.776c0 2.251-1.205 3.696-3.023 3.696-0.038 0.002-0.083 0.003-0.128 0.003-0.921 0-1.724-0.507-2.144-1.257l-0.006-0.012h-0.034v3.587h-1.488v-9.64h1.44v1.205h0.026c0.453-0.772 1.279-1.281 2.223-1.281 0.029 0 0.058 0 0.087 0.001l-0.004-0c1.839 0 3.051 1.453 3.051 3.698zM42.603 20.776c0-1.466-0.758-2.431-1.915-2.431-1.136 0-1.9 0.984-1.9 2.431 0 1.459 0.764 2.437 1.9 2.437 1.156 0 1.915-0.958 1.915-2.437zM52.103 20.776c0 2.251-1.205 3.696-3.023 3.696-0.038 0.002-0.083 0.003-0.128 0.003-0.921 0-1.724-0.507-2.144-1.257l-0.006-0.012h-0.034v3.587h-1.487v-9.64h1.439v1.205h0.027c0.453-0.772 1.279-1.281 2.223-1.281 0.029 0 0.058 0 0.087 0.001l-0.004-0c1.839 0 3.051 1.453 3.051 3.698zM50.575 20.776c0-1.466-0.758-2.431-1.915-2.431-1.136 0-1.9 0.984-1.9 2.431 0 1.459 0.764 2.437 1.9 2.437 1.156 0 1.914-0.958 1.914-2.437zM57.372 21.629c0.11 0.986 1.067 1.632 2.376 1.632 1.253 0 2.155-0.646 2.155-1.535 0-0.771-0.544-1.232-1.832-1.549l-1.287-0.31c-1.824-0.44-2.671-1.294-2.671-2.679 0-1.714 1.494-2.891 3.615-2.891 2.099 0 3.539 1.178 3.587 2.891h-1.501c-0.090-0.991-0.909-1.59-2.107-1.59s-2.017 0.606-2.017 1.486c0 0.702 0.523 1.116 1.804 1.432l1.094 0.269c2.039 0.482 2.885 1.301 2.885 2.755 0 1.859-1.48 3.023-3.835 3.023-2.203 0-3.691-1.136-3.787-2.934zM66.681 15.44v1.714h1.378v1.178h-1.378v3.993c0 0.621 0.276 0.91 0.882 0.91 0.176-0.003 0.345-0.016 0.512-0.037l-0.023 0.002v1.17c-0.226 0.044-0.485 0.070-0.75 0.070-0.027 0-0.053-0-0.079-0.001l0.004 0c-1.466 0-2.039-0.551-2.039-1.956v-4.151h-1.053v-1.178h1.053v-1.714zM68.856 20.776c0-2.279 1.343-3.711 3.435-3.711 2.1 0 3.436 1.432 3.436 3.711 0 2.285-1.329 3.711-3.436 3.711s-3.435-1.426-3.435-3.711zM74.213 20.776c0-1.563-0.716-2.487-1.921-2.487s-1.92 0.93-1.92 2.487c0 1.57 0.715 2.485 1.92 2.485s1.921-0.915 1.921-2.485zM76.954 17.154h1.418v1.233h0.034c0.194-0.758 0.871-1.309 1.677-1.309 0.023 0 0.046 0 0.068 0.001l-0.003-0c0.003 0 0.006-0 0.009-0 0.177 0 0.35 0.020 0.516 0.058l-0.015-0.003v1.39c-0.181-0.057-0.39-0.090-0.607-0.090-0.022 0-0.043 0-0.064 0.001l0.003-0c-0.018-0.001-0.039-0.001-0.061-0.001-0.828 0-1.498 0.671-1.498 1.498 0 0.060 0.003 0.118 0.010 0.176l-0.001-0.007v4.296h-1.487zM87.513 22.27c-0.2 1.314-1.48 2.217-3.119 2.217-2.107 0-3.415-1.411-3.415-3.676 0-2.272 1.315-3.746 3.352-3.746 2.005 0 3.264 1.376 3.264 3.573v0.51h-5.116v0.090c-0.005 0.050-0.007 0.108-0.007 0.166 0 1.042 0.845 1.887 1.887 1.887 0.025 0 0.049-0 0.073-0.001l-0.004 0c0.046 0.005 0.099 0.007 0.153 0.007 0.684 0 1.27-0.419 1.516-1.015l0.004-0.011zM82.487 20.108h3.621c0.002-0.029 0.003-0.063 0.003-0.097 0-0.962-0.78-1.742-1.742-1.742-0.013 0-0.026 0-0.039 0l0.002-0c-0.003-0-0.007-0-0.011-0-1.013 0-1.834 0.821-1.834 1.834 0 0.002 0 0.003 0 0.005v-0z"></path>
<path fill="#fff" style="fill: var(--color3, #fff)" d="M30.263 6.984c0.045-0.003 0.098-0.005 0.151-0.005 1.166 0 2.112 0.946 2.112 2.112 0 0.094-0.006 0.186-0.018 0.276l0.001-0.011c0 1.525-0.824 2.402-2.247 2.402h-1.724v-4.775zM29.28 11.083h0.9c0.027 0.002 0.058 0.003 0.089 0.003 0.829 0 1.501-0.672 1.501-1.501 0-0.077-0.006-0.153-0.017-0.227l0.001 0.008c0.009-0.062 0.014-0.133 0.014-0.205 0-0.831-0.674-1.505-1.505-1.505-0.029 0-0.058 0.001-0.087 0.002l0.004-0h-0.9zM33.346 9.955c-0.005-0.047-0.007-0.101-0.007-0.157 0-0.942 0.764-1.707 1.706-1.707s1.706 0.764 1.706 1.707c0 0.055-0.003 0.11-0.008 0.163l0.001-0.007c0.005 0.051 0.008 0.11 0.008 0.169 0 0.943-0.764 1.707-1.707 1.707s-1.707-0.764-1.707-1.707c0-0.060 0.003-0.118 0.009-0.176l-0.001 0.007zM36.014 9.955c0-0.781-0.351-1.238-0.966-1.238-0.618 0-0.966 0.457-0.966 1.238 0 0.787 0.347 1.24 0.966 1.24 0.616 0 0.966-0.456 0.966-1.24zM41.261 11.758h-0.738l-0.744-2.654h-0.056l-0.742 2.654h-0.73l-0.994-3.603h0.722l0.645 2.749h0.054l0.741-2.749h0.682l0.741 2.749h0.056l0.642-2.749h0.711zM43.086 8.155h0.684v0.572h0.053c0.171-0.383 0.549-0.645 0.988-0.645 0.031 0 0.061 0.001 0.092 0.004l-0.004-0c0.026-0.002 0.057-0.003 0.088-0.003 0.647 0 1.172 0.525 1.172 1.172 0 0.060-0.005 0.12-0.013 0.178l0.001-0.007v2.332h-0.711v-2.154c0-0.579-0.251-0.867-0.778-0.867-0.011-0.001-0.025-0.001-0.038-0.001-0.456 0-0.826 0.37-0.826 0.826 0 0.031 0.002 0.061 0.005 0.091l-0-0.004v2.108h-0.71zM47.278 6.749h0.71v5.008h-0.71zM48.978 9.955c-0.005-0.048-0.008-0.104-0.008-0.161 0-0.942 0.764-1.707 1.706-1.707s1.706 0.764 1.706 1.707c0 0.057-0.003 0.113-0.008 0.168l0.001-0.007c0.005 0.051 0.008 0.11 0.008 0.169 0 0.943-0.764 1.707-1.707 1.707s-1.707-0.764-1.707-1.707c0-0.060 0.003-0.118 0.009-0.176l-0.001 0.007zM51.644 9.955c0-0.781-0.351-1.238-0.966-1.238-0.618 0-0.966 0.457-0.966 1.238 0 0.787 0.347 1.24 0.966 1.24 0.616 0 0.966-0.456 0.966-1.24zM53.123 10.739c0-0.648 0.483-1.022 1.341-1.075l0.976-0.056v-0.311c0-0.38-0.252-0.595-0.738-0.595-0.398 0-0.672 0.146-0.751 0.4h-0.688c0.072-0.618 0.654-1.016 1.472-1.016 0.902 0 1.412 0.45 1.412 1.211v2.462h-0.684v-0.506h-0.056c-0.218 0.343-0.596 0.567-1.026 0.567-0.020 0-0.040-0-0.059-0.001l0.003 0c-0.034 0.004-0.073 0.006-0.113 0.006-0.6 0-1.086-0.485-1.088-1.084v-0zM55.44 10.432v-0.302l-0.88 0.056c-0.496 0.034-0.72 0.202-0.72 0.52 0 0.324 0.281 0.512 0.667 0.512 0.026 0.003 0.055 0.004 0.085 0.004 0.449 0 0.816-0.348 0.847-0.788l0-0.003zM57.082 9.955c0-1.138 0.586-1.859 1.496-1.859 0.016-0.001 0.035-0.001 0.054-0.001 0.453 0 0.847 0.254 1.047 0.627l0.003 0.006h0.054v-1.979h0.71v5.008h-0.681v-0.568h-0.056c-0.22 0.378-0.623 0.629-1.085 0.629-0.017 0-0.033-0-0.049-0.001l0.002 0c-0.916 0-1.495-0.721-1.495-1.863zM57.817 9.955c0 0.764 0.36 1.224 0.962 1.224 0.6 0 0.97-0.466 0.97-1.221 0-0.75-0.374-1.224-0.97-1.224-0.598 0-0.962 0.464-0.962 1.221zM63.388 9.955c-0.005-0.048-0.008-0.104-0.008-0.161 0-0.942 0.764-1.707 1.706-1.707s1.707 0.764 1.707 1.707c0 0.057-0.003 0.113-0.008 0.168l0.001-0.007c0.005 0.051 0.008 0.11 0.008 0.169 0 0.943-0.764 1.707-1.707 1.707s-1.707-0.764-1.707-1.707c0-0.060 0.003-0.118 0.009-0.176l-0.001 0.007zM66.055 9.955c0-0.781-0.35-1.238-0.966-1.238-0.618 0-0.966 0.457-0.966 1.238 0 0.787 0.348 1.24 0.966 1.24 0.616 0 0.966-0.456 0.966-1.24zM67.74 8.155h0.684v0.572h0.053c0.171-0.383 0.549-0.645 0.988-0.645 0.031 0 0.061 0.001 0.092 0.004l-0.004-0c0.026-0.002 0.057-0.003 0.088-0.003 0.647 0 1.172 0.525 1.172 1.172 0 0.060-0.005 0.12-0.013 0.178l0.001-0.007v2.332h-0.711v-2.154c0-0.579-0.251-0.867-0.778-0.867-0.011-0.001-0.025-0.001-0.038-0.001-0.456 0-0.826 0.37-0.826 0.826 0 0.031 0.002 0.061 0.005 0.091l-0-0.004v2.108h-0.711zM74.817 7.259v0.913h0.781v0.599h-0.781v1.852c0 0.378 0.155 0.543 0.51 0.543 0.096-0 0.19-0.007 0.283-0.018l-0.012 0.001v0.592c-0.116 0.022-0.249 0.035-0.386 0.037h-0.001c-0.79 0-1.105-0.278-1.105-0.973v-2.035h-0.572v-0.599h0.572v-0.913zM76.569 6.749h0.704v1.985h0.056c0.179-0.386 0.563-0.649 1.009-0.649 0.032 0 0.063 0.001 0.095 0.004l-0.004-0c0.019-0.001 0.042-0.002 0.064-0.002 0.655 0 1.186 0.531 1.186 1.186 0 0.056-0.004 0.111-0.011 0.165l0.001-0.006v2.326h-0.711v-2.151c0-0.576-0.268-0.867-0.77-0.867-0.021-0.002-0.045-0.003-0.069-0.003-0.465 0-0.842 0.377-0.842 0.842 0 0.026 0.001 0.052 0.004 0.078l-0-0.003v2.104h-0.71zM83.814 10.785c-0.184 0.612-0.742 1.051-1.403 1.051-0.055 0-0.11-0.003-0.163-0.009l0.007 0.001c-0.013 0-0.029 0.001-0.044 0.001-0.904 0-1.636-0.732-1.636-1.636 0-0.079 0.006-0.157 0.016-0.233l-0.001 0.009c-0.009-0.066-0.015-0.142-0.015-0.22 0-0.918 0.744-1.662 1.662-1.662 0.005 0 0.010 0 0.015 0h-0.001c1.002 0 1.607 0.685 1.607 1.816v0.248h-2.544v0.040c-0.002 0.024-0.003 0.052-0.003 0.080 0 0.526 0.426 0.952 0.952 0.952 0.004 0 0.008-0 0.012-0h-0.001c0.031 0.004 0.066 0.006 0.102 0.006 0.323 0 0.604-0.177 0.752-0.439l0.002-0.004zM81.313 9.624h1.82c0.002-0.019 0.002-0.042 0.002-0.065 0-0.48-0.389-0.869-0.869-0.869-0.007 0-0.015 0-0.022 0l0.001-0c-0.003-0-0.007-0-0.011-0-0.509 0-0.922 0.413-0.922 0.922 0 0.004 0 0.008 0 0.013v-0.001z"></path>
</symbol>
<symbol id="icon-huawei" viewBox="0 0 107 32">
<path fill="#c0c1c1" style="fill: var(--color4, #c0c1c1)" d="M99.149 0h-92.488c-0.238 0-0.477 0-0.728 0.013-0.527 0.013-1.054 0.050-1.581 0.138s-1.016 0.251-1.505 0.489c-0.477 0.238-0.903 0.552-1.28 0.928s-0.69 0.803-0.928 1.28c-0.251 0.477-0.401 0.978-0.489 1.505-0.1 0.527-0.125 1.054-0.138 1.581-0.013 0.251-0.013 0.489-0.013 0.74v18.666c0 0.251 0 0.477 0.013 0.728 0.013 0.527 0.050 1.054 0.138 1.581s0.251 1.029 0.489 1.505c0.238 0.477 0.552 0.903 0.928 1.279s0.803 0.69 1.28 0.928c0.477 0.251 0.978 0.401 1.505 0.502s1.054 0.125 1.581 0.138c0.238 0 0.489 0.013 0.728 0.013h93.341c0.238 0 0.489 0 0.728-0.013 0.527-0.013 1.054-0.050 1.581-0.138 0.527-0.1 1.016-0.251 1.505-0.502 0.477-0.238 0.903-0.552 1.279-0.928s0.69-0.803 0.928-1.279c0.238-0.477 0.401-0.978 0.489-1.505 0.1-0.527 0.125-1.054 0.151-1.581v-20.133c-0.013-0.527-0.050-1.054-0.151-1.581-0.088-0.527-0.251-1.029-0.489-1.505s-0.552-0.903-0.928-1.28c-0.376-0.376-0.803-0.69-1.279-0.928-0.489-0.238-0.978-0.401-1.505-0.489-0.514-0.1-1.054-0.125-1.581-0.138-0.238 0-0.489-0.013-0.728-0.013h-0.853z"></path>
<path fill="#000" style="fill: var(--color2, #000)" d="M6.673 31.31c-0.238 0-0.477 0-0.715-0.013-0.439-0.013-0.966-0.038-1.48-0.125-0.477-0.088-0.916-0.226-1.305-0.427-0.414-0.213-0.778-0.477-1.104-0.803s-0.59-0.69-0.803-1.104c-0.201-0.401-0.339-0.828-0.426-1.305-0.1-0.527-0.125-1.066-0.125-1.48 0-0.163-0.013-0.715-0.013-0.715v-18.666s0.013-0.552 0.013-0.702c0.013-0.414 0.038-0.953 0.125-1.48 0.088-0.489 0.226-0.916 0.426-1.317 0.213-0.414 0.477-0.79 0.803-1.104 0.326-0.326 0.702-0.602 1.104-0.803s0.828-0.351 1.305-0.426c0.527-0.1 1.066-0.113 1.48-0.125l0.715-0.013 94.043 0.013c0.401 0.013 0.941 0.038 1.468 0.125 0.477 0.088 0.903 0.226 1.317 0.426 0.401 0.213 0.778 0.477 1.104 0.803s0.59 0.69 0.803 1.104c0.201 0.401 0.339 0.828 0.427 1.305 0.088 0.502 0.125 1.016 0.138 1.493v20.096c-0.013 0.464-0.050 0.978-0.138 1.468s-0.226 0.916-0.427 1.317c-0.213 0.414-0.489 0.778-0.803 1.091-0.326 0.326-0.702 0.602-1.104 0.803-0.414 0.213-0.828 0.351-1.317 0.439-0.502 0.088-1.029 0.113-1.48 0.125-0.226 0-0.477 0.013-0.702 0.013l-93.328-0.013z"></path>
<path fill="#fff" style="fill: var(--color3, #fff)" d="M39.564 21.626h-3.7l-0.903 2.471h-1.631l3.625-9.245h1.543l3.713 9.245h-1.706l-0.941-2.471zM36.328 20.372h2.76l-0.991-2.647c-0.138-0.364-0.276-0.765-0.401-1.217-0.125 0.389-0.251 0.79-0.389 1.204l-0.978 2.659zM42.938 18.904c0-0.514-0.013-1.066-0.050-1.681h1.48c0.050 0.288 0.088 0.577 0.113 0.878 0.615-0.665 1.317-1.004 2.107-1.004 0.464 0 0.891 0.113 1.279 0.351 0.389 0.226 0.702 0.602 0.953 1.104 0.238 0.502 0.364 1.142 0.364 1.907 0 0.803-0.138 1.493-0.414 2.057s-0.652 1.004-1.154 1.292c-0.489 0.288-1.066 0.439-1.706 0.439-0.464 0-0.928-0.075-1.38-0.238v2.835l-1.581 0.138v-8.078zM47.078 22.429c0.326-0.427 0.477-1.066 0.477-1.894 0-0.765-0.138-1.33-0.401-1.681s-0.615-0.514-1.066-0.514c-0.301 0-0.59 0.075-0.853 0.213-0.263 0.151-0.502 0.339-0.74 0.577v3.688c0.163 0.075 0.339 0.138 0.552 0.188s0.414 0.063 0.615 0.063c0.627 0 1.091-0.213 1.417-0.64zM50.176 18.904c0-0.514-0.013-1.066-0.050-1.681h1.48c0.050 0.288 0.088 0.577 0.113 0.878 0.615-0.665 1.317-1.004 2.107-1.004 0.464 0 0.891 0.113 1.279 0.351 0.389 0.226 0.702 0.602 0.953 1.104 0.238 0.502 0.364 1.142 0.364 1.907 0 0.803-0.138 1.493-0.414 2.057s-0.652 1.004-1.154 1.292c-0.489 0.288-1.066 0.439-1.706 0.439-0.464 0-0.928-0.075-1.38-0.238v2.835l-1.581 0.138v-8.078zM54.328 22.429c0.326-0.427 0.477-1.066 0.477-1.894 0-0.765-0.138-1.33-0.401-1.681s-0.615-0.514-1.066-0.514c-0.301 0-0.59 0.075-0.853 0.213-0.263 0.151-0.502 0.339-0.74 0.577v3.688c0.163 0.075 0.339 0.138 0.552 0.188s0.414 0.063 0.615 0.063c0.627 0 1.091-0.213 1.417-0.64zM59.384 23.671c-0.677-0.376-1.204-0.916-1.568-1.618s-0.552-1.53-0.552-2.484c0-1.041 0.213-1.919 0.627-2.647 0.426-0.728 0.991-1.267 1.719-1.631s1.543-0.552 2.446-0.552c0.527 0 1.041 0.063 1.518 0.176 0.489 0.113 0.928 0.276 1.355 0.477l-0.401 1.217c-0.84-0.401-1.643-0.602-2.396-0.602-0.64 0-1.204 0.138-1.693 0.414s-0.853 0.677-1.129 1.204c-0.263 0.527-0.401 1.179-0.401 1.932 0 0.665 0.1 1.242 0.314 1.756 0.201 0.514 0.527 0.916 0.978 1.217 0.439 0.301 1.004 0.452 1.681 0.452 0.301 0 0.615-0.025 0.916-0.075s0.59-0.125 0.866-0.226v-1.869h-2.133v-1.242h3.675v3.889c-0.527 0.251-1.079 0.439-1.668 0.564-0.577 0.138-1.154 0.201-1.731 0.201-0.928 0.013-1.731-0.176-2.421-0.552zM70.874 24.11c-0.050-0.263-0.088-0.577-0.113-0.916-0.238 0.288-0.564 0.539-0.953 0.74s-0.828 0.301-1.317 0.301c-0.401 0-0.753-0.075-1.079-0.238-0.326-0.151-0.59-0.389-0.778-0.702s-0.288-0.69-0.288-1.142c0-0.665 0.238-1.204 0.728-1.593 0.477-0.401 1.279-0.602 2.408-0.602 0.427 0 0.84 0.025 1.254 0.088v-0.138c0-0.615-0.125-1.041-0.389-1.292s-0.627-0.376-1.116-0.376c-0.339 0-0.69 0.050-1.079 0.151s-0.715 0.213-1.004 0.351l-0.251-1.154c0.276-0.125 0.652-0.251 1.116-0.351s0.941-0.163 1.455-0.163c0.59 0 1.104 0.088 1.518 0.276 0.414 0.176 0.74 0.489 0.978 0.928s0.351 1.029 0.351 1.781v2.735c0 0.288 0.013 0.715 0.050 1.292h-1.493zM69.933 22.83c0.326-0.163 0.602-0.351 0.803-0.59v-1.279c-0.427-0.050-0.778-0.075-1.054-0.075-0.652 0-1.104 0.1-1.355 0.314s-0.376 0.489-0.376 0.853c0 0.339 0.088 0.59 0.276 0.753 0.176 0.163 0.427 0.251 0.74 0.251 0.314 0.013 0.64-0.075 0.966-0.226zM73.684 22.454v-8.141l1.568-0.125v7.991c0 0.288 0.050 0.502 0.151 0.627s0.263 0.188 0.477 0.188c0.1 0 0.238-0.025 0.414-0.075l0.188 1.129c-0.151 0.063-0.326 0.113-0.552 0.138-0.213 0.038-0.414 0.050-0.615 0.050-1.079 0-1.631-0.59-1.631-1.781zM77.61 22.454v-8.141l1.568-0.125v7.991c0 0.288 0.050 0.502 0.151 0.627s0.263 0.188 0.477 0.188c0.1 0 0.238-0.025 0.414-0.075l0.188 1.129c-0.151 0.063-0.326 0.113-0.552 0.138-0.213 0.038-0.414 0.050-0.615 0.050-1.079 0-1.631-0.59-1.631-1.781zM86.943 20.861h-4.503c0.075 1.443 0.765 2.158 2.057 2.158 0.326 0 0.652-0.038 0.991-0.113s0.665-0.188 0.978-0.314l0.339 1.079c-0.765 0.376-1.631 0.564-2.597 0.564-0.728 0-1.355-0.138-1.857-0.414s-0.878-0.677-1.129-1.192-0.376-1.142-0.376-1.882c0-0.765 0.138-1.417 0.401-1.969s0.64-0.966 1.116-1.254c0.477-0.288 1.029-0.439 1.656-0.439 0.652 0 1.192 0.151 1.631 0.452s0.765 0.715 0.966 1.217c0.213 0.502 0.314 1.066 0.314 1.681v0.427zM85.4 19.857c-0.025-0.552-0.163-0.966-0.414-1.229-0.251-0.276-0.577-0.414-0.991-0.414-0.401 0-0.728 0.138-1.004 0.414-0.263 0.276-0.439 0.69-0.514 1.229h2.923zM88.21 18.954c0-0.376-0.013-0.953-0.050-1.731h1.48c0.025 0.188 0.050 0.427 0.075 0.69s0.038 0.477 0.050 0.652c0.188-0.301 0.364-0.552 0.539-0.765s0.389-0.376 0.615-0.502c0.238-0.125 0.502-0.201 0.803-0.201 0.238 0 0.452 0.025 0.627 0.075l-0.201 1.367c-0.151-0.050-0.326-0.075-0.514-0.075-0.376 0-0.69 0.1-0.966 0.288s-0.577 0.502-0.891 0.941v4.428h-1.568v-5.168zM93.29 26.92c-0.226-0.038-0.414-0.088-0.564-0.138l0.288-1.154c0.1 0.025 0.238 0.063 0.401 0.088s0.314 0.038 0.464 0.038c0.702 0 1.217-0.452 1.568-1.342l0.1-0.251-2.534-6.949h1.693l1.279 3.876c0.213 0.665 0.339 1.167 0.401 1.53 0.125-0.502 0.263-0.991 0.427-1.493l1.292-3.914h1.593l-2.534 6.975c-0.238 0.665-0.502 1.192-0.778 1.593s-0.602 0.702-0.978 0.903c-0.376 0.201-0.828 0.288-1.367 0.288-0.276 0.013-0.514 0-0.753-0.050zM33.317 5.858h2.848l-0.075 0.69h-1.932v1.33h1.819v0.64h-1.819v1.468h2.032l-0.075 0.69h-2.797v-4.817zM38.122 8.229l-1.505-2.358h0.941l1.016 1.731 1.066-1.731h0.916l-1.493 2.333 1.606 2.496h-0.966l-1.154-1.894-1.167 1.894h-0.878l1.618-2.471zM41.308 5.858h1.305c0.615 0 1.079 0.125 1.405 0.376s0.489 0.615 0.489 1.079c0 0.326-0.075 0.602-0.213 0.84-0.151 0.238-0.351 0.427-0.615 0.552s-0.565 0.188-0.891 0.188c-0.188 0-0.401-0.025-0.627-0.063v1.857h-0.828v-4.829zM43.403 8.016c0.176-0.163 0.263-0.389 0.263-0.677 0-0.301-0.088-0.514-0.276-0.64-0.176-0.125-0.452-0.201-0.803-0.201h-0.439v1.719c0.213 0.038 0.364 0.050 0.477 0.050 0.339-0.013 0.602-0.088 0.778-0.251zM45.322 5.858h0.828v4.114h1.995l-0.075 0.715h-2.76v-4.829zM49.424 10.449c-0.351-0.201-0.627-0.489-0.815-0.853s-0.276-0.79-0.276-1.28c0-0.514 0.1-0.953 0.301-1.33s0.489-0.677 0.866-0.878c0.376-0.213 0.815-0.314 1.33-0.314 0.489 0 0.903 0.1 1.254 0.301s0.615 0.489 0.803 0.853 0.276 0.79 0.276 1.267c0 0.514-0.1 0.966-0.301 1.355-0.201 0.376-0.489 0.677-0.866 0.878s-0.815 0.314-1.317 0.314c-0.489-0.013-0.903-0.113-1.254-0.314zM51.581 9.86c0.238-0.151 0.414-0.376 0.527-0.652s0.176-0.59 0.176-0.941-0.050-0.652-0.151-0.928c-0.1-0.276-0.263-0.489-0.489-0.652s-0.514-0.238-0.866-0.238c-0.339 0-0.627 0.088-0.866 0.251s-0.414 0.376-0.527 0.652c-0.113 0.276-0.176 0.577-0.176 0.903 0 0.351 0.050 0.665 0.163 0.941s0.276 0.489 0.514 0.652c0.226 0.163 0.514 0.238 0.853 0.238 0.326 0.013 0.602-0.075 0.84-0.226zM54.078 5.858h1.505c0.552 0 0.966 0.113 1.254 0.326 0.288 0.226 0.426 0.539 0.426 0.941 0 0.251-0.050 0.477-0.151 0.677s-0.226 0.351-0.376 0.477-0.301 0.213-0.464 0.276l1.48 2.133h-0.966l-1.254-1.919h-0.615v1.919h-0.828v-4.829zM55.382 8.141c0.201 0 0.376-0.038 0.539-0.113 0.151-0.075 0.276-0.188 0.364-0.339 0.088-0.138 0.125-0.314 0.125-0.502 0-0.238-0.075-0.414-0.226-0.527s-0.376-0.163-0.665-0.163h-0.602v1.656h0.464zM58.405 5.858h2.847l-0.075 0.69h-1.932v1.33h1.819v0.64h-1.819v1.468h2.032l-0.075 0.69h-2.797v-4.817zM64.351 5.858h0.828v4.829h-0.828v-4.829zM67.387 6.561h-1.493l0.075-0.702h3.751l-0.075 0.702h-1.417v4.127h-0.828v-4.127zM73.333 10.449c-0.351-0.201-0.627-0.489-0.815-0.853s-0.276-0.79-0.276-1.28c0-0.514 0.1-0.953 0.301-1.33s0.489-0.677 0.866-0.878c0.376-0.213 0.815-0.314 1.33-0.314 0.489 0 0.903 0.1 1.254 0.301s0.615 0.489 0.803 0.853 0.276 0.79 0.276 1.267c0 0.514-0.1 0.966-0.301 1.355-0.201 0.376-0.489 0.677-0.866 0.878s-0.815 0.314-1.317 0.314c-0.477-0.013-0.903-0.113-1.254-0.314zM75.49 9.86c0.238-0.151 0.414-0.376 0.527-0.652s0.176-0.59 0.176-0.941-0.050-0.652-0.151-0.928c-0.1-0.276-0.263-0.489-0.489-0.652s-0.514-0.238-0.866-0.238c-0.339 0-0.627 0.088-0.866 0.251s-0.414 0.376-0.527 0.652c-0.113 0.276-0.176 0.577-0.176 0.903 0 0.351 0.050 0.665 0.163 0.941s0.276 0.489 0.514 0.652c0.226 0.163 0.514 0.238 0.853 0.238 0.326 0.013 0.615-0.075 0.84-0.226zM77.987 5.858h0.953l2.383 3.738c-0.025-0.351-0.025-0.677-0.025-0.978v-2.76h0.778v4.829h-0.928l-2.421-3.801c0.025 0.426 0.038 0.815 0.038 1.142v2.659h-0.778v-4.829z"></path>
<path fill="#c8102e" style="fill: var(--color5, #c8102e)" d="M21.613 5.82h-8.906c-4.19 0-5.733 1.53-5.733 5.733v8.906c0 4.19 1.53 5.733 5.733 5.733h8.906c4.19 0 5.733-1.53 5.733-5.733v-8.906c0-4.202-1.53-5.733-5.733-5.733z"></path>
<path fill="#fff" style="fill: var(--color3, #fff)" d="M11.026 16.006h0.539v2.659h-0.539v-1.079h-1.217v1.079h-0.539v-2.659h0.539v1.079h1.217v-1.079zM14.062 17.524c0 0.427-0.213 0.665-0.602 0.665s-0.615-0.238-0.615-0.677v-1.505h-0.539v1.518c0 0.753 0.414 1.179 1.142 1.179s1.154-0.439 1.154-1.204v-1.505h-0.539v1.53zM20.309 17.838l-0.602-1.831h-0.439l-0.602 1.831-0.59-1.831h-0.577l0.928 2.659h0.452l0.602-1.744 0.602 1.744h0.452l0.928-2.659h-0.564l-0.59 1.831zM22.416 17.524h0.978v-0.489h-0.978v-0.539h1.43v-0.489h-1.957v2.659h2.007v-0.489h-1.48v-0.652zM24.549 18.666h0.527v-2.659h-0.527v2.659zM15.668 18.114l-0.238 0.552h-0.552l1.167-2.659h0.477l1.167 2.659h-0.564l-0.238-0.552h-1.217zM15.868 17.624h0.815l-0.414-0.953-0.401 0.953zM17.173 12.619c-1.869 0-3.387-1.518-3.387-3.387h0.477c0 1.606 1.305 2.91 2.91 2.91s2.91-1.305 2.91-2.91h0.477c0 1.857-1.518 3.387-3.387 3.387z"></path>
</symbol>
</defs>
</svg>
